# MagicaVoxel @ Ephtracy

# group
o 

# material
mtllib Beef.mtl
usemtl palette

# normals
vn -1 0 0
vn 1 0 0
vn 0 0 1
vn 0 0 -1
vn 0 -1 0
vn 0 1 0

# texcoords
vt 0.201172 0.5
vt 0.841797 0.5

# verts
v -1.3 0 0.9
v -1.3 0 -1
v -1.3 0.3 0.9
v -1.3 0.3 -1
v -1.2 0 1
v -1.2 0 0.9
v -1.2 0.3 1
v -1.2 0.3 0.9
v -1.1 0 1.1
v -1.1 0 1
v -1.1 0 -1
v -1.1 0 -1.2
v -1.1 0.3 1.1
v -1.1 0.3 1
v -1.1 0.3 -1
v -1.1 0.3 -1.2
v -1 0 1.2
v -1 0 1.1
v -1 0 -1.2
v -1 0 -1.3
v -1 0.3 1.2
v -1 0.3 1.1
v -1 0.3 -1.2
v -1 0.3 -1.3
v -0.9 0 1.3
v -0.9 0 1.2
v -0.9 0 -1.3
v -0.9 0 -1.4
v -0.9 0.3 1.3
v -0.9 0.3 1.2
v -0.9 0.3 -1.3
v -0.9 0.3 -1.4
v -0.8 0 1.4
v -0.8 0 1.3
v -0.8 0 -1.4
v -0.8 0 -1.5
v -0.8 0.3 1.4
v -0.8 0.3 1.3
v -0.8 0.3 -1.4
v -0.8 0.3 -1.5
v -0.7 0 1.5
v -0.7 0 1.4
v -0.7 0.3 1.5
v -0.7 0.3 1.4
v 0.2 0 -1.2
v 0.2 0 -1.3
v 0.2 0.1 -1.2
v 0.2 0.1 -1.3
v -0.6 0 -1.4
v -0.6 0 -1.5
v -0.6 0.3 -1.4
v -0.6 0.3 -1.5
v 0.0999999 0 -1.2
v 0.0999999 0 -1.3
v 0.0999999 0.1 -1.2
v 0.0999999 0.1 -1.3
v 0.2 0 -1.3
v 0.2 0 -1.4
v 0.2 0.3 -1.3
v 0.2 0.3 -1.4
v 1.1 0 -1
v 1.1 0 -1.3
v 1.1 0.3 -1
v 1.1 0.3 -1.3
v 1.2 0 1.5
v 1.2 0 1.4
v 1.2 0 -0.4
v 1.2 0 -1
v 1.2 0.3 1.5
v 1.2 0.3 1.4
v 1.2 0.3 -0.4
v 1.2 0.3 -1
v 1.3 0 1.4
v 1.3 0 1
v 1.3 0 -0.4
v 1.3 0.3 1.4
v 1.3 0.3 1
v 1.3 0.3 -0.4
v -0.7 0 1.5
v -0.7 0.3 1.5
v 1.2 0 1.5
v 1.2 0.3 1.5
v -0.8 0 1.4
v -0.8 0.3 1.4
v -0.7 0 1.4
v -0.7 0.3 1.4
v 1.2 0 1.4
v 1.2 0.3 1.4
v 1.3 0 1.4
v 1.3 0.3 1.4
v -0.9 0 1.3
v -0.9 0.3 1.3
v -0.8 0 1.3
v -0.8 0.3 1.3
v -1 0 1.2
v -1 0.3 1.2
v -0.9 0 1.2
v -0.9 0.3 1.2
v -1.1 0 1.1
v -1.1 0.3 1.1
v -1 0 1.1
v -1 0.3 1.1
v -1.2 0 1
v -1.2 0.3 1
v -1.1 0 1
v -1.1 0.3 1
v -1.3 0 0.9
v -1.3 0.3 0.9
v -1.2 0 0.9
v -1.2 0.3 0.9
v 0.0999999 0 -1.3
v 0.0999999 0.1 -1.3
v 0.2 0 -1.3
v 0.2 0.1 -1.3
v 1.2 0 -0.4
v 1.2 0.3 -0.4
v 1.3 0 -0.4
v 1.3 0.3 -0.4
v -1.3 0 -1
v -1.3 0.3 -1
v -1.1 0 -1
v -1.1 0.3 -1
v 1.1 0 -1
v 1.1 0.3 -1
v 1.2 0 -1
v 1.2 0.3 -1
v -1.1 0 -1.2
v -1.1 0.3 -1.2
v -1 0 -1.2
v -1 0.3 -1.2
v 0.0999999 0 -1.2
v 0.0999999 0.1 -1.2
v 0.2 0 -1.2
v 0.2 0.1 -1.2
v -1 0 -1.3
v -1 0.3 -1.3
v -0.9 0 -1.3
v -0.9 0.3 -1.3
v 0.2 0 -1.3
v 0.2 0.3 -1.3
v 1.1 0 -1.3
v 1.1 0.3 -1.3
v -0.9 0 -1.4
v -0.9 0.3 -1.4
v -0.8 0 -1.4
v -0.8 0.3 -1.4
v -0.6 0 -1.4
v -0.6 0.3 -1.4
v 0.2 0 -1.4
v 0.2 0.3 -1.4
v -0.8 0 -1.5
v -0.8 0.3 -1.5
v -0.7 0 -1.5
v -0.7 0.3 -1.5
v -0.6 0 -1.5
v -0.6 0.3 -1.5
v -0.7 0 1.5
v 1.2 0 1.5
v -0.8 0 1.4
v -0.7 0 1.4
v -0.6 0 1.4
v 1.2 0 1.4
v 1.3 0 1.4
v -0.9 0 1.3
v -0.8 0 1.3
v -0.6 0 1.3
v -1 0 1.2
v -0.9 0 1.2
v -0.8 0 1.2
v -1.1 0 1.1
v -1 0 1.1
v -0.9 0 1.1
v -1.2 0 1
v -1.1 0 1
v 1.2 0 1
v 1.3 0 1
v -1.3 0 0.9
v -1.2 0 0.9
v -1 0 0.9
v 1.2 0 -0.4
v 1.3 0 -0.4
v -1.2 0 -0.8
v -1.1 0 -0.8
v -1.3 0 -1
v -1.1 0 -1
v -1 0 -1
v 1.1 0 -1
v 1.2 0 -1
v -1.1 0 -1.2
v -1 0 -1.2
v -0.8 0 -1.2
v 0.0999999 0 -1.2
v 0.2 0 -1.2
v -1 0 -1.3
v -0.9 0 -1.3
v 0.0999999 0 -1.3
v 0.2 0 -1.3
v 1.1 0 -1.3
v -0.9 0 -1.4
v -0.8 0 -1.4
v -0.7 0 -1.4
v -0.6 0 -1.4
v 0.2 0 -1.4
v -0.8 0 -1.5
v -0.7 0 -1.5
v -0.6 0 -1.5
v 0.0999999 0.1 -1.2
v 0.2 0.1 -1.2
v 0.0999999 0.1 -1.3
v 0.2 0.1 -1.3
v -0.7 0.3 1.5
v 1.2 0.3 1.5
v -0.8 0.3 1.4
v -0.7 0.3 1.4
v -0.6 0.3 1.4
v 1.2 0.3 1.4
v 1.3 0.3 1.4
v -0.9 0.3 1.3
v -0.8 0.3 1.3
v -0.6 0.3 1.3
v -1 0.3 1.2
v -0.9 0.3 1.2
v -0.8 0.3 1.2
v -1.1 0.3 1.1
v -1 0.3 1.1
v -0.9 0.3 1.1
v -1.2 0.3 1
v -1.1 0.3 1
v 1.2 0.3 1
v 1.3 0.3 1
v -1.3 0.3 0.9
v -1.2 0.3 0.9
v -1 0.3 0.9
v -0.6 0.3 0.8
v -0.5 0.3 0.8
v -0.6 0.3 0.7
v -0.5 0.3 0.7
v -0.8 0.3 0.6
v -0.7 0.3 0.6
v -0.7 0.3 0.5
v -0.5 0.3 0.5
v 0.2 0.3 0.5
v 0.3 0.3 0.5
v -0.8 0.3 0.4
v -0.7 0.3 0.4
v -0.6 0.3 0.4
v -0.5 0.3 0.4
v 0.2 0.3 0.4
v 0.3 0.3 0.4
v -0.8 0.3 0.3
v -0.7 0.3 0.3
v -0.6 0.3 0.3
v 0.2 0.3 0.3
v 0.3 0.3 0.3
v -0.8 0.3 0.2
v -0.7 0.3 0.2
v -0.1 0.3 0.2
v 0.2 0.3 0.2
v 0.3 0.3 0.2
v -0.2 0.3 0.1
v -0.1 0.3 0.1
v 0.2 0.3 0.1
v -0.8 0.3 0
v -0.7 0.3 0
v -0.8 0.3 -0.1
v -0.7 0.3 -0.1
v -0.3 0.3 -0.1
v -0.2 0.3 -0.1
v -0.1 0.3 -0.1
v -0.8 0.3 -0.2
v -0.7 0.3 -0.2
v -0.6 0.3 -0.2
v -0.5 0.3 -0.2
v -0.4 0.3 -0.2
v -0.3 0.3 -0.2
v -0.2 0.3 -0.2
v -0.8 0.3 -0.3
v -0.7 0.3 -0.3
v -0.4 0.3 -0.3
v -0.3 0.3 -0.3
v -0.7 0.3 -0.4
v -0.6 0.3 -0.4
v 1.2 0.3 -0.4
v 1.3 0.3 -0.4
v -0.8 0.3 -0.5
v -0.7 0.3 -0.5
v -0.5 0.3 -0.5
v -0.4 0.3 -0.5
v -0.3 0.3 -0.5
v -0.2 0.3 -0.5
v -0.5 0.3 -0.6
v -0.4 0.3 -0.6
v -0.3 0.3 -0.6
v -0.2 0.3 -0.6
v -0.8 0.3 -0.7
v -0.7 0.3 -0.7
v -0.4 0.3 -0.7
v -1.2 0.3 -0.8
v -1.1 0.3 -0.8
v -0.9 0.3 -0.8
v -0.7 0.3 -0.8
v -0.4 0.3 -0.8
v -0.8 0.3 -0.9
v -0.7 0.3 -0.9
v -1.3 0.3 -1
v -1.1 0.3 -1
v -1 0.3 -1
v -0.9 0.3 -1
v -0.8 0.3 -1
v 1.1 0.3 -1
v 1.2 0.3 -1
v -1.1 0.3 -1.2
v -1 0.3 -1.2
v -0.8 0.3 -1.2
v -1 0.3 -1.3
v -0.9 0.3 -1.3
v 0.2 0.3 -1.3
v 1.1 0.3 -1.3
v -0.9 0.3 -1.4
v -0.8 0.3 -1.4
v -0.7 0.3 -1.4
v -0.6 0.3 -1.4
v 0.2 0.3 -1.4
v -0.8 0.3 -1.5
v -0.7 0.3 -1.5
v -0.6 0.3 -1.5

# faces
f 3/1/1 2/1/1 1/1/1
f 4/1/1 2/1/1 3/1/1
f 7/1/1 6/1/1 5/1/1
f 8/1/1 6/1/1 7/1/1
f 13/1/1 10/1/1 9/1/1
f 14/1/1 10/1/1 13/1/1
f 15/1/1 12/1/1 11/1/1
f 16/1/1 12/1/1 15/1/1
f 21/1/1 18/1/1 17/1/1
f 22/1/1 18/1/1 21/1/1
f 23/1/1 20/1/1 19/1/1
f 24/1/1 20/1/1 23/1/1
f 29/1/1 26/1/1 25/1/1
f 30/1/1 26/1/1 29/1/1
f 31/1/1 28/1/1 27/1/1
f 32/1/1 28/1/1 31/1/1
f 37/1/1 34/1/1 33/1/1
f 38/1/1 34/1/1 37/1/1
f 39/1/1 36/1/1 35/1/1
f 40/1/1 36/1/1 39/1/1
f 43/1/1 42/1/1 41/1/1
f 44/1/1 42/1/1 43/1/1
f 47/2/1 46/2/1 45/2/1
f 48/2/1 46/2/1 47/2/1
f 49/2/2 50/2/2 51/2/2
f 51/2/2 50/2/2 52/2/2
f 53/2/2 54/2/2 55/2/2
f 55/2/2 54/2/2 56/2/2
f 57/2/2 58/2/2 59/2/2
f 59/2/2 58/2/2 60/2/2
f 61/2/2 62/2/2 63/2/2
f 63/2/2 62/2/2 64/2/2
f 65/1/2 66/1/2 69/1/2
f 69/1/2 66/1/2 70/1/2
f 67/2/2 68/2/2 71/2/2
f 71/2/2 68/2/2 72/2/2
f 73/1/2 74/1/2 76/1/2
f 74/2/2 75/2/2 77/2/2
f 76/1/2 74/1/2 77/1/2
f 77/2/2 75/2/2 78/2/2
f 81/1/3 80/1/3 79/1/3
f 82/1/3 80/1/3 81/1/3
f 85/1/3 84/1/3 83/1/3
f 86/1/3 84/1/3 85/1/3
f 89/1/3 88/1/3 87/1/3
f 90/1/3 88/1/3 89/1/3
f 93/1/3 92/1/3 91/1/3
f 94/1/3 92/1/3 93/1/3
f 97/1/3 96/1/3 95/1/3
f 98/1/3 96/1/3 97/1/3
f 101/1/3 100/1/3 99/1/3
f 102/1/3 100/1/3 101/1/3
f 105/1/3 104/1/3 103/1/3
f 106/1/3 104/1/3 105/1/3
f 109/1/3 108/1/3 107/1/3
f 110/1/3 108/1/3 109/1/3
f 113/2/3 112/2/3 111/2/3
f 114/2/3 112/2/3 113/2/3
f 115/2/4 116/2/4 117/2/4
f 117/2/4 116/2/4 118/2/4
f 119/1/4 120/1/4 121/1/4
f 121/1/4 120/1/4 122/1/4
f 123/2/4 124/2/4 125/2/4
f 125/2/4 124/2/4 126/2/4
f 127/1/4 128/1/4 129/1/4
f 129/1/4 128/1/4 130/1/4
f 131/2/4 132/2/4 133/2/4
f 133/2/4 132/2/4 134/2/4
f 135/1/4 136/1/4 137/1/4
f 137/1/4 136/1/4 138/1/4
f 139/2/4 140/2/4 141/2/4
f 141/2/4 140/2/4 142/2/4
f 143/1/4 144/1/4 145/1/4
f 145/1/4 144/1/4 146/1/4
f 147/2/4 148/2/4 149/2/4
f 149/2/4 148/2/4 150/2/4
f 151/1/4 152/1/4 153/1/4
f 153/1/4 152/1/4 154/1/4
f 153/2/4 154/2/4 155/2/4
f 155/2/4 154/2/4 156/2/4
f 160/1/5 158/1/5 157/1/5
f 161/1/5 158/1/5 160/1/5
f 162/1/5 158/1/5 161/1/5
f 165/1/5 160/1/5 159/1/5
f 165/1/5 161/1/5 160/1/5
f 166/2/5 162/2/5 161/2/5
f 166/1/5 161/1/5 165/1/5
f 168/1/5 165/1/5 164/1/5
f 169/2/5 166/2/5 165/2/5
f 169/1/5 165/1/5 168/1/5
f 171/1/5 168/1/5 167/1/5
f 172/2/5 169/2/5 168/2/5
f 172/1/5 168/1/5 171/1/5
f 174/1/5 171/1/5 170/1/5
f 175/1/5 163/1/5 162/1/5
f 175/2/5 162/2/5 166/2/5
f 175/2/5 166/2/5 169/2/5
f 175/2/5 169/2/5 172/2/5
f 175/2/5 172/2/5 171/2/5
f 176/1/5 163/1/5 175/1/5
f 178/1/5 174/1/5 173/1/5
f 179/1/5 171/1/5 174/1/5
f 179/2/5 175/2/5 171/2/5
f 179/1/5 174/1/5 178/1/5
f 179/2/5 176/2/5 175/2/5
f 180/2/5 179/2/5 178/2/5
f 180/2/5 176/2/5 179/2/5
f 181/2/5 176/2/5 180/2/5
f 182/1/5 178/1/5 177/1/5
f 182/2/5 180/2/5 178/2/5
f 183/2/5 180/2/5 182/2/5
f 184/1/5 182/1/5 177/1/5
f 184/1/5 183/1/5 182/1/5
f 185/2/5 180/2/5 183/2/5
f 185/1/5 183/1/5 184/1/5
f 186/2/5 180/2/5 185/2/5
f 187/2/5 180/2/5 186/2/5
f 188/2/5 180/2/5 187/2/5
f 189/1/5 186/1/5 185/1/5
f 190/2/5 187/2/5 186/2/5
f 190/1/5 186/1/5 189/1/5
f 191/2/5 187/2/5 190/2/5
f 192/2/5 187/2/5 191/2/5
f 193/2/5 187/2/5 192/2/5
f 194/1/5 191/1/5 190/1/5
f 195/1/5 191/1/5 194/1/5
f 196/2/5 192/2/5 191/2/5
f 197/2/5 187/2/5 193/2/5
f 198/2/5 187/2/5 197/2/5
f 199/1/5 191/1/5 195/1/5
f 200/2/5 196/2/5 191/2/5
f 200/1/5 191/1/5 199/1/5
f 200/2/5 197/2/5 196/2/5
f 201/2/5 197/2/5 200/2/5
f 202/2/5 197/2/5 201/2/5
f 203/2/5 197/2/5 202/2/5
f 204/1/5 201/1/5 200/1/5
f 205/2/5 202/2/5 201/2/5
f 205/1/5 201/1/5 204/1/5
f 206/2/5 202/2/5 205/2/5
f 209/2/5 208/2/5 207/2/5
f 210/2/5 208/2/5 209/2/5
f 211/1/6 212/1/6 214/1/6
f 214/1/6 212/1/6 215/1/6
f 215/1/6 212/1/6 216/1/6
f 213/1/6 214/1/6 219/1/6
f 214/1/6 215/1/6 219/1/6
f 215/2/6 216/2/6 220/2/6
f 219/1/6 215/1/6 220/1/6
f 218/1/6 219/1/6 222/1/6
f 219/2/6 220/2/6 223/2/6
f 222/1/6 219/1/6 223/1/6
f 221/1/6 222/1/6 225/1/6
f 222/2/6 223/2/6 226/2/6
f 225/1/6 222/1/6 226/1/6
f 224/1/6 225/1/6 228/1/6
f 216/1/6 217/1/6 229/1/6
f 220/2/6 216/2/6 229/2/6
f 223/2/6 220/2/6 229/2/6
f 226/2/6 223/2/6 229/2/6
f 225/2/6 226/2/6 229/2/6
f 229/1/6 217/1/6 230/1/6
f 227/1/6 228/1/6 232/1/6
f 228/1/6 225/1/6 233/1/6
f 225/2/6 229/2/6 233/2/6
f 232/1/6 228/1/6 233/1/6
f 229/2/6 230/2/6 233/2/6
f 232/2/6 233/2/6 234/2/6
f 233/2/6 230/2/6 234/2/6
f 234/2/6 230/2/6 235/2/6
f 232/2/6 234/2/6 236/2/6
f 234/1/6 235/1/6 236/1/6
f 235/2/6 230/2/6 237/2/6
f 236/1/6 235/1/6 237/1/6
f 232/2/6 236/2/6 238/2/6
f 236/2/6 237/2/6 238/2/6
f 238/2/6 237/2/6 239/2/6
f 238/1/6 239/1/6 240/1/6
f 239/2/6 237/2/6 240/2/6
f 237/2/6 230/2/6 241/2/6
f 240/2/6 237/2/6 241/2/6
f 241/2/6 230/2/6 242/2/6
f 242/2/6 230/2/6 243/2/6
f 238/1/6 240/1/6 244/1/6
f 232/2/6 238/2/6 244/2/6
f 240/1/6 241/1/6 244/1/6
f 244/1/6 241/1/6 245/1/6
f 245/1/6 241/1/6 246/1/6
f 241/2/6 242/2/6 247/2/6
f 246/1/6 241/1/6 247/1/6
f 242/1/6 243/1/6 248/1/6
f 247/2/6 242/2/6 248/2/6
f 243/2/6 230/2/6 249/2/6
f 248/1/6 243/1/6 249/1/6
f 232/2/6 244/2/6 250/2/6
f 244/2/6 245/2/6 250/2/6
f 245/1/6 246/1/6 251/1/6
f 250/2/6 245/2/6 251/2/6
f 247/2/6 248/2/6 252/2/6
f 251/1/6 246/1/6 252/1/6
f 246/2/6 247/2/6 252/2/6
f 248/2/6 249/2/6 252/2/6
f 252/2/6 249/2/6 253/2/6
f 249/2/6 230/2/6 254/2/6
f 253/2/6 249/2/6 254/2/6
f 250/1/6 251/1/6 255/1/6
f 232/2/6 250/2/6 255/2/6
f 252/2/6 253/2/6 256/2/6
f 255/1/6 251/1/6 256/1/6
f 251/2/6 252/2/6 256/2/6
f 256/2/6 253/2/6 257/2/6
f 253/1/6 254/1/6 258/1/6
f 257/2/6 253/2/6 258/2/6
f 254/2/6 230/2/6 259/2/6
f 258/1/6 254/1/6 259/1/6
f 256/2/6 257/2/6 260/2/6
f 255/2/6 256/2/6 260/2/6
f 257/1/6 258/1/6 261/1/6
f 260/2/6 257/2/6 261/2/6
f 258/2/6 259/2/6 262/2/6
f 261/1/6 258/1/6 262/1/6
f 255/2/6 260/2/6 263/2/6
f 232/2/6 255/2/6 263/2/6
f 263/2/6 260/2/6 264/2/6
f 232/2/6 263/2/6 265/2/6
f 263/1/6 264/1/6 265/1/6
f 264/2/6 260/2/6 266/2/6
f 265/1/6 264/1/6 266/1/6
f 266/2/6 260/2/6 267/2/6
f 260/1/6 261/1/6 268/1/6
f 267/2/6 260/2/6 268/2/6
f 261/2/6 262/2/6 269/2/6
f 268/1/6 261/1/6 269/1/6
f 266/2/6 267/2/6 270/2/6
f 232/2/6 265/2/6 270/2/6
f 265/2/6 266/2/6 270/2/6
f 270/2/6 267/2/6 271/2/6
f 271/2/6 267/2/6 272/2/6
f 272/2/6 267/2/6 273/2/6
f 273/2/6 267/2/6 274/2/6
f 267/1/6 268/1/6 275/1/6
f 274/2/6 267/2/6 275/2/6
f 268/2/6 269/2/6 276/2/6
f 275/1/6 268/1/6 276/1/6
f 232/2/6 270/2/6 277/2/6
f 270/1/6 271/1/6 277/1/6
f 271/2/6 272/2/6 278/2/6
f 277/1/6 271/1/6 278/1/6
f 273/2/6 274/2/6 279/2/6
f 274/1/6 275/1/6 279/1/6
f 275/2/6 276/2/6 280/2/6
f 279/1/6 275/1/6 280/1/6
f 278/2/6 272/2/6 281/2/6
f 277/2/6 278/2/6 281/2/6
f 272/1/6 273/1/6 282/1/6
f 281/2/6 272/2/6 282/2/6
f 262/2/6 259/2/6 283/2/6
f 280/2/6 276/2/6 283/2/6
f 259/2/6 230/2/6 283/2/6
f 269/2/6 262/2/6 283/2/6
f 279/2/6 280/2/6 283/2/6
f 276/2/6 269/2/6 283/2/6
f 283/2/6 230/2/6 284/2/6
f 277/2/6 281/2/6 285/2/6
f 232/2/6 277/2/6 285/2/6
f 281/1/6 282/1/6 286/1/6
f 285/2/6 281/2/6 286/2/6
f 282/1/6 273/1/6 287/1/6
f 286/1/6 282/1/6 287/1/6
f 279/2/6 283/2/6 287/2/6
f 273/2/6 279/2/6 287/2/6
f 287/2/6 283/2/6 288/2/6
f 288/2/6 283/2/6 289/2/6
f 289/2/6 283/2/6 290/2/6
f 286/2/6 287/2/6 291/2/6
f 287/1/6 288/1/6 291/1/6
f 288/2/6 289/2/6 292/2/6
f 291/1/6 288/1/6 292/1/6
f 289/1/6 290/1/6 293/1/6
f 292/2/6 289/2/6 293/2/6
f 290/2/6 283/2/6 294/2/6
f 293/1/6 290/1/6 294/1/6
f 285/1/6 286/1/6 295/1/6
f 232/2/6 285/2/6 295/2/6
f 293/2/6 294/2/6 296/2/6
f 295/1/6 286/1/6 296/1/6
f 292/2/6 293/2/6 296/2/6
f 286/2/6 291/2/6 296/2/6
f 291/2/6 292/2/6 296/2/6
f 296/2/6 294/2/6 297/2/6
f 231/1/6 232/1/6 298/1/6
f 232/2/6 295/2/6 298/2/6
f 295/2/6 296/2/6 298/2/6
f 298/2/6 296/2/6 299/2/6
f 299/2/6 296/2/6 300/2/6
f 296/1/6 297/1/6 301/1/6
f 300/2/6 296/2/6 301/2/6
f 297/2/6 294/2/6 302/2/6
f 301/1/6 297/1/6 302/1/6
f 300/1/6 301/1/6 303/1/6
f 301/2/6 302/2/6 304/2/6
f 303/1/6 301/1/6 304/1/6
f 231/1/6 298/1/6 305/1/6
f 298/1/6 299/1/6 305/1/6
f 299/2/6 300/2/6 306/2/6
f 305/1/6 299/1/6 306/1/6
f 306/2/6 300/2/6 307/2/6
f 300/1/6 303/1/6 308/1/6
f 307/2/6 300/2/6 308/2/6
f 303/2/6 304/2/6 309/2/6
f 308/1/6 303/1/6 309/1/6
f 302/2/6 294/2/6 310/2/6
f 309/2/6 304/2/6 310/2/6
f 294/2/6 283/2/6 310/2/6
f 304/2/6 302/2/6 310/2/6
f 310/2/6 283/2/6 311/2/6
f 306/1/6 307/1/6 312/1/6
f 308/2/6 309/2/6 313/2/6
f 312/1/6 307/1/6 313/1/6
f 309/2/6 310/2/6 313/2/6
f 307/2/6 308/2/6 313/2/6
f 313/2/6 310/2/6 314/2/6
f 313/1/6 314/1/6 315/1/6
f 315/1/6 314/1/6 316/1/6
f 314/2/6 310/2/6 317/2/6
f 317/2/6 310/2/6 318/2/6
f 316/1/6 314/1/6 319/1/6
f 314/2/6 317/2/6 320/2/6
f 319/1/6 314/1/6 320/1/6
f 320/2/6 317/2/6 321/2/6
f 321/2/6 317/2/6 322/2/6
f 322/2/6 317/2/6 323/2/6
f 320/1/6 321/1/6 324/1/6
f 321/2/6 322/2/6 325/2/6
f 324/1/6 321/1/6 325/1/6
f 325/2/6 322/2/6 326/2/6
