# MagicaVoxel @ Ephtracy

# group
o 

# material
mtllib CutLettuce.mtl
usemtl palette

# normals
vn -1 0 0
vn 1 0 0
vn 0 0 1
vn 0 0 -1
vn 0 -1 0
vn 0 1 0

# texcoords
vt 0.466797 0.5
vt 0.486328 0.5

# verts
v -1.7 0 1.4
v -1.7 0 -0.0999999
v -1.7 0.1 1.4
v -1.7 0.1 0.8
v -1.7 0.2 1.4
v -1.7 0.2 0.8
v -1.7 0.2 -0.0999999
v -1.6 0 1.5
v -1.6 0 1.4
v -1.6 0 -0.0999999
v -1.6 0 -0.6
v -1.6 0.1 1.5
v -1.6 0.1 1.4
v -1.6 0.2 1.5
v -1.6 0.2 1.4
v -1.6 0.2 -0.0999999
v -1.6 0.2 -0.6
v -1.5 0 1.7
v -1.5 0 1.5
v -1.5 0 -0.6
v -1.5 0 -0.7
v -1.5 0.1 1.7
v -1.5 0.1 1.5
v -1.5 0.2 1.7
v -1.5 0.2 1.5
v -1.5 0.2 -0.6
v -1.5 0.2 -0.7
v -1.4 0 -0.7
v -1.4 0 -0.8
v -1.4 0.2 -0.7
v -1.4 0.2 -0.8
v -1.3 0 -0.8
v -1.3 0 -0.9
v -1.3 0.2 -0.8
v -1.3 0.2 -0.9
v -1 0 -0.9
v -1 0 -1
v -1 0.2 -0.9
v -1 0.2 -1
v -0.8 0 -1
v -0.8 0 -1.1
v -0.8 0.2 -1
v -0.8 0.2 -1.1
v -0.7 0 -1.1
v -0.7 0 -1.2
v -0.7 0.2 -1.1
v -0.7 0.2 -1.2
v -0.4 0 -1.2
v -0.4 0 -1.3
v -0.4 0.2 -1.2
v -0.4 0.2 -1.3
v 0 0 -1.3
v 0 0 -1.4
v 0 0.2 -1.3
v 0 0.2 -1.4
v 0.2 0 -1.4
v 0.2 0 -1.7
v 0.2 0.2 -1.4
v 0.2 0.2 -1.7
v 1.5 0 0.6
v 1.5 0 0.5
v 1.5 0.2 0.6
v 1.5 0.2 0.5
v -1.1 0 1.7
v -1.1 0 1.6
v -1.1 0.1 1.7
v -1.1 0.1 1.6
v -1.1 0.2 1.7
v -1.1 0.2 1.6
v -0.5 0 1.6
v -0.5 0 1.5
v -0.5 0.2 1.6
v -0.5 0.2 1.5
v -0.2 0 1.5
v -0.2 0 1.4
v -0.2 0.2 1.5
v -0.2 0.2 1.4
v 0 0 1.4
v 0 0 1.3
v 0 0.2 1.4
v 0 0.2 1.3
v 0.2 0 1.3
v 0.2 0 1.2
v 0.2 0.2 1.3
v 0.2 0.2 1.2
v 0.4 0 1.2
v 0.4 0 1.1
v 0.4 0.2 1.2
v 0.4 0.2 1.1
v 0.6 0 1.1
v 0.6 0 1
v 0.6 0.2 1.1
v 0.6 0.2 1
v 0.7 0 1
v 0.7 0 0.9
v 0.7 0 -1.6
v 0.7 0 -1.7
v 0.7 0.2 1
v 0.7 0.2 0.9
v 0.7 0.2 -1.6
v 0.7 0.2 -1.7
v 0.8 0 0.9
v 0.8 0 0.7
v 0.8 0.2 0.9
v 0.8 0.2 0.7
v 1.1 0 -1.5
v 1.1 0 -1.6
v 1.1 0.2 -1.5
v 1.1 0.2 -1.6
v 1.2 0 0.7
v 1.2 0 0.6
v 1.2 0.2 0.7
v 1.2 0.2 0.6
v 1.3 0 -1.3
v 1.3 0 -1.5
v 1.3 0.2 -1.3
v 1.3 0.2 -1.5
v 1.4 0 0.6
v 1.4 0 0.5
v 1.4 0 -1.1
v 1.4 0 -1.3
v 1.4 0.2 0.6
v 1.4 0.2 0.5
v 1.4 0.2 -1.1
v 1.4 0.2 -1.3
v 1.5 0 -1
v 1.5 0 -1.1
v 1.5 0.2 -1
v 1.5 0.2 -1.1
v 1.6 0 0.6
v 1.6 0 0.5
v 1.6 0 -0.4
v 1.6 0 -0.5
v 1.6 0 -0.9
v 1.6 0 -1
v 1.6 0.2 0.6
v 1.6 0.2 0.5
v 1.6 0.2 -0.4
v 1.6 0.2 -0.5
v 1.6 0.2 -0.9
v 1.6 0.2 -1
v 1.7 0 0.5
v 1.7 0 -0.4
v 1.7 0 -0.5
v 1.7 0 -0.9
v 1.7 0.2 0.5
v 1.7 0.2 -0.4
v 1.7 0.2 -0.5
v 1.7 0.2 -0.9
v -1.5 0 1.7
v -1.5 0.1 1.7
v -1.5 0.2 1.7
v -1.1 0 1.7
v -1.1 0.1 1.7
v -1.1 0.2 1.7
v -1.1 0 1.6
v -1.1 0.1 1.6
v -1.1 0.2 1.6
v -0.8 0.1 1.6
v -0.8 0.2 1.6
v -0.5 0 1.6
v -0.5 0.2 1.6
v -1.6 0 1.5
v -1.6 0.1 1.5
v -1.6 0.2 1.5
v -1.5 0 1.5
v -1.5 0.1 1.5
v -1.5 0.2 1.5
v -0.5 0 1.5
v -0.5 0.2 1.5
v -0.2 0 1.5
v -0.2 0.2 1.5
v -1.7 0 1.4
v -1.7 0.1 1.4
v -1.7 0.2 1.4
v -1.6 0 1.4
v -1.6 0.1 1.4
v -1.6 0.2 1.4
v -0.2 0 1.4
v -0.2 0.2 1.4
v 0 0 1.4
v 0 0.2 1.4
v 0 0 1.3
v 0 0.2 1.3
v 0.2 0 1.3
v 0.2 0.2 1.3
v 0.2 0 1.2
v 0.2 0.2 1.2
v 0.4 0 1.2
v 0.4 0.2 1.2
v 0.4 0 1.1
v 0.4 0.2 1.1
v 0.6 0 1.1
v 0.6 0.2 1.1
v 0.6 0 1
v 0.6 0.2 1
v 0.7 0 1
v 0.7 0.2 1
v 0.7 0 0.9
v 0.7 0.2 0.9
v 0.8 0 0.9
v 0.8 0.2 0.9
v 0.8 0 0.7
v 0.8 0.2 0.7
v 1.2 0 0.7
v 1.2 0.2 0.7
v 1.2 0 0.6
v 1.2 0.2 0.6
v 1.4 0 0.6
v 1.4 0.2 0.6
v 1.5 0 0.6
v 1.5 0.2 0.6
v 1.6 0 0.6
v 1.6 0.2 0.6
v 1.4 0 0.5
v 1.4 0.2 0.5
v 1.5 0 0.5
v 1.5 0.2 0.5
v 1.6 0 0.5
v 1.6 0.2 0.5
v 1.7 0 0.5
v 1.7 0.2 0.5
v 1.6 0 -0.5
v 1.6 0.2 -0.5
v 1.7 0 -0.5
v 1.7 0.2 -0.5
v -1.7 0 -0.0999999
v -1.7 0.2 -0.0999999
v -1.6 0 -0.0999999
v -1.6 0.2 -0.0999999
v 1.6 0 -0.4
v 1.6 0.2 -0.4
v 1.7 0 -0.4
v 1.7 0.2 -0.4
v -1.6 0 -0.6
v -1.6 0.2 -0.6
v -1.5 0 -0.6
v -1.5 0.2 -0.6
v -1.5 0 -0.7
v -1.5 0.2 -0.7
v -1.4 0 -0.7
v -1.4 0.2 -0.7
v -1.4 0 -0.8
v -1.4 0.2 -0.8
v -1.3 0 -0.8
v -1.3 0.2 -0.8
v -1.3 0 -0.9
v -1.3 0.2 -0.9
v -1 0 -0.9
v -1 0.2 -0.9
v 1.6 0 -0.9
v 1.6 0.2 -0.9
v 1.7 0 -0.9
v 1.7 0.2 -0.9
v -1 0 -1
v -1 0.2 -1
v -0.8 0 -1
v -0.8 0.2 -1
v 1.5 0 -1
v 1.5 0.2 -1
v 1.6 0 -1
v 1.6 0.2 -1
v -0.8 0 -1.1
v -0.8 0.2 -1.1
v -0.7 0 -1.1
v -0.7 0.2 -1.1
v 1.4 0 -1.1
v 1.4 0.2 -1.1
v 1.5 0 -1.1
v 1.5 0.2 -1.1
v -0.7 0 -1.2
v -0.7 0.2 -1.2
v -0.4 0 -1.2
v -0.4 0.2 -1.2
v -0.4 0 -1.3
v -0.4 0.2 -1.3
v 0 0 -1.3
v 0 0.2 -1.3
v 1.3 0 -1.3
v 1.3 0.2 -1.3
v 1.4 0 -1.3
v 1.4 0.2 -1.3
v 0 0 -1.4
v 0 0.2 -1.4
v 0.2 0 -1.4
v 0.2 0.2 -1.4
v 1.1 0 -1.5
v 1.1 0.2 -1.5
v 1.3 0 -1.5
v 1.3 0.2 -1.5
v 0.7 0 -1.6
v 0.7 0.2 -1.6
v 1.1 0 -1.6
v 1.1 0.2 -1.6
v 0.2 0 -1.7
v 0.2 0.2 -1.7
v 0.7 0 -1.7
v 0.7 0.2 -1.7
v -1.5 0 1.7
v -1.1 0 1.7
v -1.1 0 1.6
v -0.5 0 1.6
v -1.6 0 1.5
v -1.5 0 1.5
v -0.5 0 1.5
v -0.2 0 1.5
v -1.7 0 1.4
v -1.6 0 1.4
v -0.2 0 1.4
v 0 0 1.4
v 0 0 1.3
v 0.2 0 1.3
v 0.2 0 1.2
v 0.4 0 1.2
v 0.4 0 1.1
v 0.6 0 1.1
v 0.6 0 1
v 0.7 0 1
v 0.7 0 0.9
v 0.8 0 0.9
v 0.8 0 0.7
v 1.2 0 0.7
v 1.2 0 0.6
v 1.4 0 0.6
v 1.5 0 0.6
v 1.6 0 0.6
v 1.4 0 0.5
v 1.5 0 0.5
v 1.6 0 0.5
v 1.7 0 0.5
v -1.7 0 -0.0999999
v -1.6 0 -0.0999999
v 1.6 0 -0.4
v 1.7 0 -0.4
v 1.6 0 -0.5
v 1.7 0 -0.5
v -1.6 0 -0.6
v -1.5 0 -0.6
v -1.5 0 -0.7
v -1.4 0 -0.7
v -1.4 0 -0.8
v -1.3 0 -0.8
v -1.3 0 -0.9
v -1 0 -0.9
v 1.6 0 -0.9
v 1.7 0 -0.9
v -1 0 -1
v -0.8 0 -1
v 1.5 0 -1
v 1.6 0 -1
v -0.8 0 -1.1
v -0.7 0 -1.1
v 1.4 0 -1.1
v 1.5 0 -1.1
v -0.7 0 -1.2
v -0.4 0 -1.2
v -0.4 0 -1.3
v 0 0 -1.3
v 1.3 0 -1.3
v 1.4 0 -1.3
v 0 0 -1.4
v 0.2 0 -1.4
v 1.1 0 -1.5
v 1.3 0 -1.5
v 0.7 0 -1.6
v 1.1 0 -1.6
v 0.2 0 -1.7
v 0.7 0 -1.7
v -1.5 0.2 1.7
v -1.1 0.2 1.7
v -1.1 0.2 1.6
v -0.8 0.2 1.6
v -0.5 0.2 1.6
v -1.6 0.2 1.5
v -1.5 0.2 1.5
v -0.5 0.2 1.5
v -0.2 0.2 1.5
v -1.7 0.2 1.4
v -1.6 0.2 1.4
v -1.1 0.2 1.4
v -0.8 0.2 1.4
v -0.2 0.2 1.4
v 0 0.2 1.4
v 0 0.2 1.3
v 0.2 0.2 1.3
v -1.2 0.2 1.2
v -1.1 0.2 1.2
v 0.2 0.2 1.2
v 0.4 0.2 1.2
v -1.4 0.2 1.1
v -1.2 0.2 1.1
v -1.1 0.2 1.1
v 0.4 0.2 1.1
v 0.6 0.2 1.1
v -1.5 0.2 1
v -1.4 0.2 1
v -1.2 0.2 1
v -1.1 0.2 1
v -1 0.2 1
v -0.6 0.2 1
v -0.4 0.2 1
v 0.6 0.2 1
v 0.7 0.2 1
v -1.6 0.2 0.9
v -1.5 0.2 0.9
v -1 0.2 0.9
v -0.6 0.2 0.9
v -0.4 0.2 0.9
v 0.7 0.2 0.9
v 0.8 0.2 0.9
v -1.7 0.2 0.8
v -1.6 0.2 0.8
v -1.2 0.2 0.8
v -1.1 0.2 0.8
v -0.9 0.2 0.8
v -0.8 0.2 0.8
v -0.6 0.2 0.8
v -0.9 0.2 0.7
v -0.8 0.2 0.7
v -0.7 0.2 0.7
v 0.8 0.2 0.7
v 1.2 0.2 0.7
v -1.3 0.2 0.6
v -1.2 0.2 0.6
v -1.1 0.2 0.6
v -0.9 0.2 0.6
v -0.8 0.2 0.6
v -0.7 0.2 0.6
v -0.6 0.2 0.6
v -0.2 0.2 0.6
v -0.1 0.2 0.6
v 1.2 0.2 0.6
v 1.4 0.2 0.6
v 1.5 0.2 0.6
v 1.6 0.2 0.6
v -0.7 0.2 0.5
v -0.6 0.2 0.5
v -0.5 0.2 0.5
v -0.4 0.2 0.5
v -0.2 0.2 0.5
v -0.1 0.2 0.5
v 1.4 0.2 0.5
v 1.5 0.2 0.5
v 1.6 0.2 0.5
v 1.7 0.2 0.5
v -1.4 0.2 0.4
v -1.3 0.2 0.4
v -1.2 0.2 0.4
v -1 0.2 0.4
v -0.9 0.2 0.4
v -0.8 0.2 0.4
v -0.5 0.2 0.4
v -0.4 0.2 0.4
v -0.3 0.2 0.4
v -0.2 0.2 0.4
v 0.0999999 0.2 0.4
v 0.2 0.2 0.4
v -0.7 0.2 0.3
v -0.6 0.2 0.3
v -0.3 0.2 0.3
v -0.2 0.2 0.3
v -0.1 0.2 0.3
v 0.0999999 0.2 0.3
v 0.2 0.2 0.3
v -1.4 0.2 0.2
v -1.3 0.2 0.2
v -0.3 0.2 0.2
v -0.2 0.2 0.2
v -0.1 0.2 0.2
v 0.0999999 0.2 0.2
v -1.1 0.2 0.1
v -1 0.2 0.1
v -0.9 0.2 0.1
v -0.2 0.2 0.1
v -0.1 0.2 0.1
v 0 0.2 0.1
v 0.4 0.2 0.1
v 0.6 0.2 0.1
v -0.1 0.2 0
v 0 0.2 0
v 0.0999999 0.2 0
v 0.2 0.2 0
v 0.4 0.2 0
v 0.6 0.2 0
v 0.7 0.2 0
v -1.7 0.2 -0.0999999
v -1.6 0.2 -0.0999999
v -1.1 0.2 -0.0999999
v -1 0.2 -0.0999999
v -0.8 0.2 -0.0999999
v -0.7 0.2 -0.0999999
v -0.6 0.2 -0.0999999
v 0.0999999 0.2 -0.0999999
v 0.2 0.2 -0.0999999
v 0.4 0.2 -0.0999999
v 0.6 0.2 -0.0999999
v 0.7 0.2 -0.0999999
v -0.1 0.2 -0.2
v 0 0.2 -0.2
v 0.0999999 0.2 -0.2
v 0.2 0.2 -0.2
v 0.4 0.2 -0.2
v 0.6 0.2 -0.2
v 0.8 0.2 -0.2
v 1 0.2 -0.2
v -0.8 0.2 -0.3
v -0.7 0.2 -0.3
v 0.2 0.2 -0.3
v 0.3 0.2 -0.3
v 0.6 0.2 -0.3
v 0.8 0.2 -0.3
v 1 0.2 -0.3
v -0.2 0.2 -0.4
v -0.1 0.2 -0.4
v 0.0999999 0.2 -0.4
v 0.2 0.2 -0.4
v 0.4 0.2 -0.4
v 0.6 0.2 -0.4
v 0.8 0.2 -0.4
v 1.6 0.2 -0.4
v 1.7 0.2 -0.4
v 0.4 0.2 -0.5
v 0.6 0.2 -0.5
v 1.6 0.2 -0.5
v 1.7 0.2 -0.5
v -1.6 0.2 -0.6
v -1.5 0.2 -0.6
v -0.3 0.2 -0.6
v -0.2 0.2 -0.6
v -0.1 0.2 -0.6
v -1.5 0.2 -0.7
v -1.4 0.2 -0.7
v -0.3 0.2 -0.7
v -0.2 0.2 -0.7
v 0.0999999 0.2 -0.7
v 0.2 0.2 -0.7
v -1.4 0.2 -0.8
v -1.3 0.2 -0.8
v -1.3 0.2 -0.9
v -1 0.2 -0.9
v 1.6 0.2 -0.9
v 1.7 0.2 -0.9
v -1 0.2 -1
v -0.8 0.2 -1
v 0.3 0.2 -1
v 0.4 0.2 -1
v 1.5 0.2 -1
v 1.6 0.2 -1
v -0.8 0.2 -1.1
v -0.7 0.2 -1.1
v 1.4 0.2 -1.1
v 1.5 0.2 -1.1
v -0.7 0.2 -1.2
v -0.4 0.2 -1.2
v -0.4 0.2 -1.3
v 0 0.2 -1.3
v 1.3 0.2 -1.3
v 1.4 0.2 -1.3
v 0 0.2 -1.4
v 0.2 0.2 -1.4
v 1.1 0.2 -1.5
v 1.3 0.2 -1.5
v 0.7 0.2 -1.6
v 1.1 0.2 -1.6
v 0.2 0.2 -1.7
v 0.7 0.2 -1.7

# faces
f 3/2/1 2/2/1 1/2/1
f 4/2/1 2/2/1 3/2/1
f 5/1/1 4/1/1 3/1/1
f 6/2/1 2/2/1 4/2/1
f 6/1/1 4/1/1 5/1/1
f 7/2/1 2/2/1 6/2/1
f 12/2/1 9/2/1 8/2/1
f 13/2/1 9/2/1 12/2/1
f 14/1/1 13/1/1 12/1/1
f 15/1/1 13/1/1 14/1/1
f 16/2/1 11/2/1 10/2/1
f 17/2/1 11/2/1 16/2/1
f 22/2/1 19/2/1 18/2/1
f 23/2/1 19/2/1 22/2/1
f 24/1/1 23/1/1 22/1/1
f 25/1/1 23/1/1 24/1/1
f 26/2/1 21/2/1 20/2/1
f 27/2/1 21/2/1 26/2/1
f 30/2/1 29/2/1 28/2/1
f 31/2/1 29/2/1 30/2/1
f 34/2/1 33/2/1 32/2/1
f 35/2/1 33/2/1 34/2/1
f 38/2/1 37/2/1 36/2/1
f 39/2/1 37/2/1 38/2/1
f 42/2/1 41/2/1 40/2/1
f 43/2/1 41/2/1 42/2/1
f 46/2/1 45/2/1 44/2/1
f 47/2/1 45/2/1 46/2/1
f 50/2/1 49/2/1 48/2/1
f 51/2/1 49/2/1 50/2/1
f 54/2/1 53/2/1 52/2/1
f 55/2/1 53/2/1 54/2/1
f 58/2/1 57/2/1 56/2/1
f 59/2/1 57/2/1 58/2/1
f 62/2/1 61/2/1 60/2/1
f 63/2/1 61/2/1 62/2/1
f 64/2/2 65/2/2 66/2/2
f 66/2/2 65/2/2 67/2/2
f 66/1/2 67/1/2 68/1/2
f 68/1/2 67/1/2 69/1/2
f 70/2/2 71/2/2 72/2/2
f 72/2/2 71/2/2 73/2/2
f 74/2/2 75/2/2 76/2/2
f 76/2/2 75/2/2 77/2/2
f 78/2/2 79/2/2 80/2/2
f 80/2/2 79/2/2 81/2/2
f 82/2/2 83/2/2 84/2/2
f 84/2/2 83/2/2 85/2/2
f 86/2/2 87/2/2 88/2/2
f 88/2/2 87/2/2 89/2/2
f 90/2/2 91/2/2 92/2/2
f 92/2/2 91/2/2 93/2/2
f 94/2/2 95/2/2 98/2/2
f 98/2/2 95/2/2 99/2/2
f 96/2/2 97/2/2 100/2/2
f 100/2/2 97/2/2 101/2/2
f 102/2/2 103/2/2 104/2/2
f 104/2/2 103/2/2 105/2/2
f 106/2/2 107/2/2 108/2/2
f 108/2/2 107/2/2 109/2/2
f 110/2/2 111/2/2 112/2/2
f 112/2/2 111/2/2 113/2/2
f 114/2/2 115/2/2 116/2/2
f 116/2/2 115/2/2 117/2/2
f 118/2/2 119/2/2 122/2/2
f 122/2/2 119/2/2 123/2/2
f 120/2/2 121/2/2 124/2/2
f 124/2/2 121/2/2 125/2/2
f 126/2/2 127/2/2 128/2/2
f 128/2/2 127/2/2 129/2/2
f 130/2/2 131/2/2 136/2/2
f 136/2/2 131/2/2 137/2/2
f 132/2/2 133/2/2 138/2/2
f 138/2/2 133/2/2 139/2/2
f 134/2/2 135/2/2 140/2/2
f 140/2/2 135/2/2 141/2/2
f 142/2/2 143/2/2 146/2/2
f 146/2/2 143/2/2 147/2/2
f 144/2/2 145/2/2 148/2/2
f 148/2/2 145/2/2 149/2/2
f 153/2/3 151/2/3 150/2/3
f 154/1/3 152/1/3 151/1/3
f 154/2/3 151/2/3 153/2/3
f 155/1/3 152/1/3 154/1/3
f 159/2/3 157/2/3 156/2/3
f 159/1/3 158/1/3 157/1/3
f 160/1/3 158/1/3 159/1/3
f 161/2/3 159/2/3 156/2/3
f 161/2/3 160/2/3 159/2/3
f 162/2/3 160/2/3 161/2/3
f 166/2/3 164/2/3 163/2/3
f 167/1/3 165/1/3 164/1/3
f 167/2/3 164/2/3 166/2/3
f 168/1/3 165/1/3 167/1/3
f 171/2/3 170/2/3 169/2/3
f 172/2/3 170/2/3 171/2/3
f 176/2/3 174/2/3 173/2/3
f 177/1/3 175/1/3 174/1/3
f 177/2/3 174/2/3 176/2/3
f 178/1/3 175/1/3 177/1/3
f 181/2/3 180/2/3 179/2/3
f 182/2/3 180/2/3 181/2/3
f 185/2/3 184/2/3 183/2/3
f 186/2/3 184/2/3 185/2/3
f 189/2/3 188/2/3 187/2/3
f 190/2/3 188/2/3 189/2/3
f 193/2/3 192/2/3 191/2/3
f 194/2/3 192/2/3 193/2/3
f 197/2/3 196/2/3 195/2/3
f 198/2/3 196/2/3 197/2/3
f 201/2/3 200/2/3 199/2/3
f 202/2/3 200/2/3 201/2/3
f 205/2/3 204/2/3 203/2/3
f 206/2/3 204/2/3 205/2/3
f 209/2/3 208/2/3 207/2/3
f 210/2/3 208/2/3 209/2/3
f 213/2/3 212/2/3 211/2/3
f 214/2/3 212/2/3 213/2/3
f 217/2/3 216/2/3 215/2/3
f 218/2/3 216/2/3 217/2/3
f 221/2/3 220/2/3 219/2/3
f 222/2/3 220/2/3 221/2/3
f 225/2/3 224/2/3 223/2/3
f 226/2/3 224/2/3 225/2/3
f 227/2/4 228/2/4 229/2/4
f 229/2/4 228/2/4 230/2/4
f 231/2/4 232/2/4 233/2/4
f 233/2/4 232/2/4 234/2/4
f 235/2/4 236/2/4 237/2/4
f 237/2/4 236/2/4 238/2/4
f 239/2/4 240/2/4 241/2/4
f 241/2/4 240/2/4 242/2/4
f 243/2/4 244/2/4 245/2/4
f 245/2/4 244/2/4 246/2/4
f 247/2/4 248/2/4 249/2/4
f 249/2/4 248/2/4 250/2/4
f 251/2/4 252/2/4 253/2/4
f 253/2/4 252/2/4 254/2/4
f 255/2/4 256/2/4 257/2/4
f 257/2/4 256/2/4 258/2/4
f 259/2/4 260/2/4 261/2/4
f 261/2/4 260/2/4 262/2/4
f 263/2/4 264/2/4 265/2/4
f 265/2/4 264/2/4 266/2/4
f 267/2/4 268/2/4 269/2/4
f 269/2/4 268/2/4 270/2/4
f 271/2/4 272/2/4 273/2/4
f 273/2/4 272/2/4 274/2/4
f 275/2/4 276/2/4 277/2/4
f 277/2/4 276/2/4 278/2/4
f 279/2/4 280/2/4 281/2/4
f 281/2/4 280/2/4 282/2/4
f 283/2/4 284/2/4 285/2/4
f 285/2/4 284/2/4 286/2/4
f 287/2/4 288/2/4 289/2/4
f 289/2/4 288/2/4 290/2/4
f 291/2/4 292/2/4 293/2/4
f 293/2/4 292/2/4 294/2/4
f 295/2/4 296/2/4 297/2/4
f 297/2/4 296/2/4 298/2/4
f 301/2/5 300/2/5 299/2/5
f 304/2/5 301/2/5 299/2/5
f 304/2/5 302/2/5 301/2/5
f 305/2/5 302/2/5 304/2/5
f 308/2/5 304/2/5 303/2/5
f 308/2/5 306/2/5 305/2/5
f 308/2/5 305/2/5 304/2/5
f 309/2/5 306/2/5 308/2/5
f 311/2/5 308/2/5 307/2/5
f 311/2/5 310/2/5 309/2/5
f 311/2/5 309/2/5 308/2/5
f 313/2/5 312/2/5 311/2/5
f 315/2/5 314/2/5 313/2/5
f 317/2/5 316/2/5 315/2/5
f 319/2/5 318/2/5 317/2/5
f 321/2/5 320/2/5 319/2/5
f 323/2/5 322/2/5 321/2/5
f 327/2/5 324/2/5 323/2/5
f 328/2/5 326/2/5 325/2/5
f 329/2/5 326/2/5 328/2/5
f 331/2/5 311/2/5 307/2/5
f 331/2/5 330/2/5 329/2/5
f 331/2/5 329/2/5 328/2/5
f 331/2/5 328/2/5 327/2/5
f 331/2/5 313/2/5 311/2/5
f 331/2/5 327/2/5 323/2/5
f 331/2/5 323/2/5 321/2/5
f 331/2/5 321/2/5 319/2/5
f 331/2/5 319/2/5 317/2/5
f 331/2/5 317/2/5 315/2/5
f 331/2/5 315/2/5 313/2/5
f 332/2/5 330/2/5 331/2/5
f 333/2/5 330/2/5 332/2/5
f 334/2/5 330/2/5 333/2/5
f 335/2/5 333/2/5 332/2/5
f 337/2/5 335/2/5 332/2/5
f 337/2/5 336/2/5 335/2/5
f 338/2/5 336/2/5 337/2/5
f 339/2/5 336/2/5 338/2/5
f 340/2/5 336/2/5 339/2/5
f 341/2/5 336/2/5 340/2/5
f 342/2/5 336/2/5 341/2/5
f 343/2/5 336/2/5 342/2/5
f 344/2/5 336/2/5 343/2/5
f 345/2/5 336/2/5 344/2/5
f 346/2/5 336/2/5 345/2/5
f 347/2/5 345/2/5 344/2/5
f 348/2/5 345/2/5 347/2/5
f 349/2/5 345/2/5 348/2/5
f 350/2/5 345/2/5 349/2/5
f 351/2/5 349/2/5 348/2/5
f 352/2/5 349/2/5 351/2/5
f 353/2/5 349/2/5 352/2/5
f 354/2/5 349/2/5 353/2/5
f 355/2/5 353/2/5 352/2/5
f 356/2/5 353/2/5 355/2/5
f 357/2/5 353/2/5 356/2/5
f 358/2/5 353/2/5 357/2/5
f 359/2/5 353/2/5 358/2/5
f 360/2/5 353/2/5 359/2/5
f 361/2/5 359/2/5 358/2/5
f 362/2/5 359/2/5 361/2/5
f 363/2/5 359/2/5 362/2/5
f 364/2/5 359/2/5 363/2/5
f 365/2/5 363/2/5 362/2/5
f 366/2/5 363/2/5 365/2/5
f 367/2/5 365/2/5 362/2/5
f 368/2/5 365/2/5 367/2/5
f 369/1/6 370/1/6 371/1/6
f 369/1/6 371/1/6 375/1/6
f 371/1/6 372/1/6 375/1/6
f 372/2/6 373/2/6 376/2/6
f 374/1/6 375/1/6 379/1/6
f 375/1/6 372/1/6 380/1/6
f 379/1/6 375/1/6 380/1/6
f 376/2/6 377/2/6 381/2/6
f 380/1/6 372/1/6 381/1/6
f 372/2/6 376/2/6 381/2/6
f 381/2/6 377/2/6 382/2/6
f 380/2/6 381/2/6 384/2/6
f 382/2/6 383/2/6 384/2/6
f 381/2/6 382/2/6 384/2/6
f 379/1/6 380/1/6 386/1/6
f 378/1/6 379/1/6 386/1/6
f 384/2/6 385/2/6 387/2/6
f 386/1/6 380/1/6 387/1/6
f 380/2/6 384/2/6 387/2/6
f 387/2/6 385/2/6 388/2/6
f 378/1/6 386/1/6 390/1/6
f 388/2/6 389/2/6 391/2/6
f 390/1/6 386/1/6 391/1/6
f 386/2/6 387/2/6 391/2/6
f 387/2/6 388/2/6 391/2/6
f 391/2/6 389/2/6 392/2/6
f 392/2/6 389/2/6 393/2/6
f 378/1/6 390/1/6 395/1/6
f 390/2/6 391/2/6 396/2/6
f 395/1/6 390/1/6 396/1/6
f 391/1/6 392/1/6 397/1/6
f 396/2/6 391/2/6 397/2/6
f 393/2/6 394/2/6 398/2/6
f 397/1/6 392/1/6 398/1/6
f 392/2/6 393/2/6 398/2/6
f 398/2/6 394/2/6 399/2/6
f 399/2/6 394/2/6 400/2/6
f 400/2/6 394/2/6 401/2/6
f 401/2/6 394/2/6 402/2/6
f 378/1/6 395/1/6 404/1/6
f 396/2/6 397/2/6 405/2/6
f 404/1/6 395/1/6 405/1/6
f 395/2/6 396/2/6 405/2/6
f 397/2/6 398/2/6 405/2/6
f 398/1/6 399/1/6 406/1/6
f 399/2/6 400/2/6 406/2/6
f 400/1/6 401/1/6 407/1/6
f 406/2/6 400/2/6 407/2/6
f 402/2/6 403/2/6 408/2/6
f 407/1/6 401/1/6 408/1/6
f 401/2/6 402/2/6 408/2/6
f 408/2/6 403/2/6 409/2/6
f 378/1/6 404/1/6 411/1/6
f 404/2/6 405/2/6 412/2/6
f 411/1/6 404/1/6 412/1/6
f 405/2/6 398/2/6 413/2/6
f 412/2/6 405/2/6 413/2/6
f 406/1/6 407/1/6 414/1/6
f 413/2/6 398/2/6 414/2/6
f 398/1/6 406/1/6 414/1/6
f 414/1/6 407/1/6 415/1/6
f 415/1/6 407/1/6 416/1/6
f 409/2/6 410/2/6 417/2/6
f 416/1/6 407/1/6 417/1/6
f 408/2/6 409/2/6 417/2/6
f 407/2/6 408/2/6 417/2/6
f 415/1/6 416/1/6 418/1/6
f 414/2/6 415/2/6 418/2/6
f 416/2/6 417/2/6 419/2/6
f 418/1/6 416/1/6 419/1/6
f 419/2/6 417/2/6 420/2/6
f 417/2/6 410/2/6 421/2/6
f 420/2/6 417/2/6 421/2/6
f 412/2/6 413/2/6 423/2/6
f 411/2/6 412/2/6 423/2/6
f 413/1/6 414/1/6 424/1/6
f 423/2/6 413/2/6 424/2/6
f 414/2/6 418/2/6 425/2/6
f 424/1/6 414/1/6 425/1/6
f 418/2/6 419/2/6 425/2/6
f 425/2/6 419/2/6 426/2/6
f 419/1/6 420/1/6 427/1/6
f 426/2/6 419/2/6 427/2/6
f 421/2/6 422/2/6 428/2/6
f 427/1/6 420/1/6 428/1/6
f 420/2/6 421/2/6 428/2/6
f 428/2/6 422/2/6 429/2/6
f 429/2/6 422/2/6 430/2/6
f 430/2/6 422/2/6 431/2/6
f 431/2/6 422/2/6 432/2/6
f 427/2/6 428/2/6 436/2/6
f 428/1/6 429/1/6 436/1/6
f 429/2/6 430/2/6 437/2/6
f 436/1/6 429/1/6 437/1/6
f 437/2/6 430/2/6 438/2/6
f 438/2/6 430/2/6 439/2/6
f 430/1/6 431/1/6 440/1/6
f 439/2/6 430/2/6 440/2/6
f 432/2/6 433/2/6 441/2/6
f 440/1/6 431/1/6 441/1/6
f 431/2/6 432/2/6 441/2/6
f 441/2/6 433/2/6 442/2/6
f 434/2/6 435/2/6 443/2/6
f 443/2/6 435/2/6 444/2/6
f 411/2/6 423/2/6 446/2/6
f 423/1/6 424/1/6 447/1/6
f 446/2/6 423/2/6 447/2/6
f 425/2/6 426/2/6 448/2/6
f 447/1/6 424/1/6 448/1/6
f 424/2/6 425/2/6 448/2/6
f 448/2/6 426/2/6 449/2/6
f 426/1/6 427/1/6 450/1/6
f 449/2/6 426/2/6 450/2/6
f 427/2/6 436/2/6 451/2/6
f 450/1/6 427/1/6 451/1/6
f 436/2/6 437/2/6 451/2/6
f 438/2/6 439/2/6 452/2/6
f 437/1/6 438/1/6 452/1/6
f 439/1/6 440/1/6 453/1/6
f 452/2/6 439/2/6 453/2/6
f 453/1/6 440/1/6 454/1/6
f 443/2/6 444/2/6 455/2/6
f 454/1/6 440/1/6 455/1/6
f 444/2/6 445/2/6 455/2/6
f 441/2/6 442/2/6 455/2/6
f 442/2/6 443/2/6 455/2/6
f 440/2/6 441/2/6 455/2/6
f 455/2/6 445/2/6 456/2/6
f 456/2/6 445/2/6 457/2/6
f 451/2/6 437/2/6 458/2/6
f 450/2/6 451/2/6 458/2/6
f 453/1/6 454/1/6 459/1/6
f 458/2/6 437/2/6 459/2/6
f 452/1/6 453/1/6 459/1/6
f 437/1/6 452/1/6 459/1/6
f 455/2/6 456/2/6 460/2/6
f 459/1/6 454/1/6 460/1/6
f 454/2/6 455/2/6 460/2/6
f 460/2/6 456/2/6 461/2/6
f 461/2/6 456/2/6 462/2/6
f 456/1/6 457/1/6 463/1/6
f 462/2/6 456/2/6 463/2/6
f 457/2/6 445/2/6 464/2/6
f 463/1/6 457/1/6 464/1/6
f 446/1/6 447/1/6 465/1/6
f 411/2/6 446/2/6 465/2/6
f 448/2/6 449/2/6 466/2/6
f 465/1/6 447/1/6 466/1/6
f 447/2/6 448/2/6 466/2/6
f 460/1/6 461/1/6 467/1/6
f 459/2/6 460/2/6 467/2/6
f 461/2/6 462/2/6 468/2/6
f 467/1/6 461/1/6 468/1/6
f 462/1/6 463/1/6 469/1/6
f 468/2/6 462/2/6 469/2/6
f 463/2/6 464/2/6 470/2/6
f 469/1/6 463/1/6 470/1/6
f 466/2/6 449/2/6 471/2/6
f 465/2/6 466/2/6 471/2/6
f 449/1/6 450/1/6 472/1/6
f 471/2/6 449/2/6 472/2/6
f 450/2/6 458/2/6 473/2/6
f 472/1/6 450/1/6 473/1/6
f 468/1/6 469/1/6 474/1/6
f 467/2/6 468/2/6 474/2/6
f 469/2/6 470/2/6 475/2/6
f 474/1/6 469/1/6 475/1/6
f 475/2/6 470/2/6 476/2/6
f 464/2/6 445/2/6 477/2/6
f 476/2/6 470/2/6 477/2/6
f 470/2/6 464/2/6 477/2/6
f 477/2/6 445/2/6 478/2/6
f 475/1/6 476/1/6 479/1/6
f 474/2/6 475/2/6 479/2/6
f 476/2/6 477/2/6 480/2/6
f 479/1/6 476/1/6 480/1/6
f 480/2/6 477/2/6 481/2/6
f 481/2/6 477/2/6 482/2/6
f 477/1/6 478/1/6 483/1/6
f 482/2/6 477/2/6 483/2/6
f 478/2/6 445/2/6 484/2/6
f 483/1/6 478/1/6 484/1/6
f 484/2/6 445/2/6 485/2/6
f 411/2/6 465/2/6 486/2/6
f 465/2/6 471/2/6 486/2/6
f 486/2/6 471/2/6 487/2/6
f 471/1/6 472/1/6 488/1/6
f 487/2/6 471/2/6 488/2/6
f 472/2/6 473/2/6 489/2/6
f 488/1/6 472/1/6 489/1/6
f 473/2/6 458/2/6 490/2/6
f 489/2/6 473/2/6 490/2/6
f 458/1/6 459/1/6 491/1/6
f 490/2/6 458/2/6 491/2/6
f 459/2/6 467/2/6 492/2/6
f 491/1/6 459/1/6 492/1/6
f 467/2/6 474/2/6 492/2/6
f 474/2/6 479/2/6 492/2/6
f 479/2/6 480/2/6 492/2/6
f 481/2/6 482/2/6 493/2/6
f 480/1/6 481/1/6 493/1/6
f 482/1/6 483/1/6 494/1/6
f 493/2/6 482/2/6 494/2/6
f 483/2/6 484/2/6 495/2/6
f 494/1/6 483/1/6 495/1/6
f 484/1/6 485/1/6 496/1/6
f 495/2/6 484/2/6 496/2/6
f 485/2/6 445/2/6 497/2/6
f 496/1/6 485/1/6 497/1/6
f 492/2/6 480/2/6 498/2/6
f 491/2/6 492/2/6 498/2/6
f 480/1/6 493/1/6 499/1/6
f 498/2/6 480/2/6 499/2/6
f 493/1/6 494/1/6 499/1/6
f 499/1/6 494/1/6 500/1/6
f 494/2/6 495/2/6 501/2/6
f 500/1/6 494/1/6 501/1/6
f 495/1/6 496/1/6 502/1/6
f 501/2/6 495/2/6 502/2/6
f 496/2/6 497/2/6 503/2/6
f 502/1/6 496/1/6 503/1/6
f 497/2/6 445/2/6 504/2/6
f 503/2/6 497/2/6 504/2/6
f 504/2/6 445/2/6 505/2/6
f 488/2/6 489/2/6 506/2/6
f 489/2/6 490/2/6 506/2/6
f 487/2/6 488/2/6 506/2/6
f 490/1/6 491/1/6 506/1/6
f 491/2/6 498/2/6 507/2/6
f 506/1/6 491/1/6 507/1/6
f 500/2/6 501/2/6 508/2/6
f 501/1/6 502/1/6 508/1/6
f 508/1/6 502/1/6 509/1/6
f 502/2/6 503/2/6 510/2/6
f 503/2/6 504/2/6 510/2/6
f 504/1/6 505/1/6 511/1/6
f 510/2/6 504/2/6 511/2/6
f 505/2/6 445/2/6 512/2/6
f 511/1/6 505/1/6 512/1/6
f 507/2/6 498/2/6 513/2/6
f 506/2/6 507/2/6 513/2/6
f 499/1/6 500/1/6 514/1/6
f 513/2/6 498/2/6 514/2/6
f 498/1/6 499/1/6 514/1/6
f 508/2/6 509/2/6 515/2/6
f 514/1/6 500/1/6 515/1/6
f 500/2/6 508/2/6 515/2/6
f 515/2/6 509/2/6 516/2/6
f 509/1/6 502/1/6 517/1/6
f 502/2/6 510/2/6 517/2/6
f 510/1/6 511/1/6 518/1/6
f 517/2/6 510/2/6 518/2/6
f 511/2/6 512/2/6 519/2/6
f 518/1/6 511/1/6 519/1/6
f 512/2/6 445/2/6 520/2/6
f 519/2/6 512/2/6 520/2/6
f 520/2/6 445/2/6 521/2/6
f 509/1/6 517/1/6 522/1/6
f 517/1/6 518/1/6 522/1/6
f 518/2/6 519/2/6 523/2/6
f 522/1/6 518/1/6 523/1/6
f 519/2/6 520/2/6 523/2/6
f 523/2/6 520/2/6 524/2/6
f 487/2/6 506/2/6 526/2/6
f 506/2/6 513/2/6 526/2/6
f 526/2/6 513/2/6 527/2/6
f 527/2/6 513/2/6 528/2/6
f 513/1/6 514/1/6 529/1/6
f 528/2/6 513/2/6 529/2/6
f 514/2/6 515/2/6 530/2/6
f 529/1/6 514/1/6 530/1/6
f 527/2/6 528/2/6 531/2/6
f 531/2/6 528/2/6 532/2/6
f 528/1/6 529/1/6 533/1/6
f 532/2/6 528/2/6 533/2/6
f 529/2/6 530/2/6 534/2/6
f 533/1/6 529/1/6 534/1/6
f 515/1/6 516/1/6 535/1/6
f 534/2/6 530/2/6 535/2/6
f 530/2/6 515/2/6 535/2/6
f 516/2/6 509/2/6 536/2/6
f 535/1/6 516/1/6 536/1/6
f 534/2/6 535/2/6 537/2/6
f 533/2/6 534/2/6 537/2/6
f 535/2/6 536/2/6 537/2/6
f 532/2/6 533/2/6 537/2/6
f 537/2/6 536/2/6 538/2/6
f 538/2/6 536/2/6 539/2/6
f 539/2/6 536/2/6 540/2/6
f 524/2/6 525/2/6 541/2/6
f 522/2/6 523/2/6 541/2/6
f 523/2/6 524/2/6 541/2/6
f 541/2/6 525/2/6 542/2/6
f 540/2/6 536/2/6 543/2/6
f 543/2/6 536/2/6 544/2/6
f 509/1/6 522/1/6 545/1/6
f 544/2/6 536/2/6 545/2/6
f 536/2/6 509/2/6 545/2/6
f 522/2/6 541/2/6 546/2/6
f 545/1/6 522/1/6 546/1/6
f 546/2/6 541/2/6 547/2/6
f 547/2/6 541/2/6 548/2/6
f 544/2/6 545/2/6 549/2/6
f 546/2/6 547/2/6 549/2/6
f 545/2/6 546/2/6 549/2/6
f 549/2/6 547/2/6 550/2/6
f 550/2/6 547/2/6 551/2/6
f 551/2/6 547/2/6 552/2/6
f 550/2/6 551/2/6 553/2/6
f 553/2/6 551/2/6 554/2/6
f 554/2/6 551/2/6 555/2/6
f 555/2/6 551/2/6 556/2/6
f 556/2/6 551/2/6 557/2/6
f 557/2/6 551/2/6 558/2/6
f 556/2/6 557/2/6 559/2/6
f 559/2/6 557/2/6 560/2/6
f 560/2/6 557/2/6 561/2/6
f 561/2/6 557/2/6 562/2/6
f 560/2/6 561/2/6 563/2/6
f 563/2/6 561/2/6 564/2/6
f 560/2/6 563/2/6 565/2/6
f 565/2/6 563/2/6 566/2/6
