# MagicaVoxel @ Ephtracy

# group
o 

# material
mtllib EmptyTableSoft.mtl
usemtl palette

# normals
vn -1 0 0
vn 1 0 0
vn 0 0 1
vn 0 0 -1
vn 0 -1 0
vn 0 1 0

# texcoords
vt 0.255859 0.5
vt 0.283203 0.5
vt 0.310547 0.5
vt 0.912109 0.5

# verts
v -2 0 2
v -2 0 1.8
v -2 0 -1.8
v -2 0 -2
v -2 1.2 2
v -2 1.2 1.8
v -2 1.2 -1.8
v -2 1.2 -2
v -2 1.3 2
v -2 1.3 -2
v -1.9 0 1.8
v -1.9 0 -1.8
v -1.9 0.5 0.0999999
v -1.9 0.5 -0.1
v -1.9 0.7 0.0999999
v -1.9 0.7 -0.1
v -1.9 1.2 1.8
v -1.9 1.2 -1.8
v 1.8 0 2
v 1.8 0 1.9
v 1.8 0 1.8
v 1.8 0 -1.8
v 1.8 0 -1.9
v 1.8 0 -2
v 1.8 0.5 -2.38419e-007
v 1.8 0.5 -0.2
v 1.8 0.7 -2.38419e-007
v 1.8 0.7 -0.2
v 1.8 1.2 2
v 1.8 1.2 1.9
v 1.8 1.2 1.8
v 1.8 1.2 -1.8
v 1.8 1.2 -1.9
v 1.8 1.2 -2
v -1.8 0 2
v -1.8 0 1.9
v -1.8 0 1.8
v -1.8 0 -1.8
v -1.8 0 -1.9
v -1.8 0 -2
v -1.8 0.5 0.0999999
v -1.8 0.5 -0.1
v -1.8 0.7 0.0999999
v -1.8 0.7 -0.1
v -1.8 1.2 2
v -1.8 1.2 1.9
v -1.8 1.2 1.8
v -1.8 1.2 -1.8
v -1.8 1.2 -1.9
v -1.8 1.2 -2
v 1.9 0 1.8
v 1.9 0 -1.8
v 1.9 0.5 -2.38419e-007
v 1.9 0.5 -0.2
v 1.9 0.7 -2.38419e-007
v 1.9 0.7 -0.2
v 1.9 1.2 1.8
v 1.9 1.2 -1.8
v 2 0 2
v 2 0 1.8
v 2 0 -1.8
v 2 0 -2
v 2 1.2 2
v 2 1.2 1.8
v 2 1.2 -1.8
v 2 1.2 -2
v 2 1.3 2
v 2 1.3 -2
v -2 0 2
v -2 1.2 2
v -2 1.3 2
v -1.8 0 2
v -1.8 1.2 2
v 1.8 0 2
v 1.8 1.2 2
v 2 0 2
v 2 1.2 2
v 2 1.3 2
v -1.8 0 1.9
v -1.8 1.2 1.9
v 2.38419e-007 0.5 1.9
v 2.38419e-007 0.7 1.9
v 0.2 0.5 1.9
v 0.2 0.7 1.9
v 1.8 0 1.9
v 1.8 1.2 1.9
v -2 0 -1.8
v -2 1.2 -1.8
v -1.9 0 -1.8
v -1.9 1.2 -1.8
v -1.8 0 -1.8
v -1.8 1.2 -1.8
v -0.0999999 0.5 -1.8
v -0.0999999 0.7 -1.8
v 0.1 0.5 -1.8
v 0.1 0.7 -1.8
v 1.8 0 -1.8
v 1.8 1.2 -1.8
v 1.9 0 -1.8
v 1.9 1.2 -1.8
v 2 0 -1.8
v 2 1.2 -1.8
v -2 0 1.8
v -2 1.2 1.8
v -1.9 0 1.8
v -1.9 1.2 1.8
v -1.8 0 1.8
v -1.8 1.2 1.8
v 2.38419e-007 0.5 1.8
v 2.38419e-007 0.7 1.8
v 0.2 0.5 1.8
v 0.2 0.7 1.8
v 1.8 0 1.8
v 1.8 1.2 1.8
v 1.9 0 1.8
v 1.9 1.2 1.8
v 2 0 1.8
v 2 1.2 1.8
v -1.8 0 -1.9
v -1.8 1.2 -1.9
v -0.0999999 0.5 -1.9
v -0.0999999 0.7 -1.9
v 0.1 0.5 -1.9
v 0.1 0.7 -1.9
v 1.8 0 -1.9
v 1.8 1.2 -1.9
v -2 0 -2
v -2 1.2 -2
v -2 1.3 -2
v -1.8 0 -2
v -1.8 1.2 -2
v 1.8 0 -2
v 1.8 1.2 -2
v 2 0 -2
v 2 1.2 -2
v 2 1.3 -2
v -2 0 2
v -1.8 0 2
v 1.8 0 2
v 2 0 2
v -1.8 0 1.9
v 1.8 0 1.9
v -2 0 1.8
v -1.9 0 1.8
v -1.8 0 1.8
v 1.8 0 1.8
v 1.9 0 1.8
v 2 0 1.8
v -2 0 -1.8
v -1.9 0 -1.8
v -1.8 0 -1.8
v 1.8 0 -1.8
v 1.9 0 -1.8
v 2 0 -1.8
v -1.8 0 -1.9
v 1.8 0 -1.9
v -2 0 -2
v -1.8 0 -2
v 1.8 0 -2
v 2 0 -2
v -1.8 1.2 2
v 1.8 1.2 2
v -1.8 1.2 1.9
v 1.8 1.2 1.9
v -2 1.2 1.8
v -1.9 1.2 1.8
v -1.8 1.2 1.8
v 1.8 1.2 1.8
v 1.9 1.2 1.8
v 2 1.2 1.8
v -2 1.2 -1.8
v -1.9 1.2 -1.8
v -1.8 1.2 -1.8
v 1.8 1.2 -1.8
v 1.9 1.2 -1.8
v 2 1.2 -1.8
v -1.8 1.2 -1.9
v 1.8 1.2 -1.9
v -1.8 1.2 -2
v 1.8 1.2 -2
v -2 1.3 2
v 2 1.3 2
v -2 1.3 -2
v 2 1.3 -2

# faces
f 5/3/1 2/3/1 1/3/1
f 6/3/1 2/3/1 5/3/1
f 7/3/1 4/3/1 3/3/1
f 8/3/1 4/3/1 7/3/1
f 9/2/1 6/2/1 5/2/1
f 9/2/1 7/2/1 6/2/1
f 9/2/1 8/2/1 7/2/1
f 10/2/1 8/2/1 9/2/1
f 13/1/1 12/1/1 11/1/1
f 14/1/1 12/1/1 13/1/1
f 15/1/1 13/1/1 11/1/1
f 15/4/1 14/4/1 13/4/1
f 16/1/1 12/1/1 14/1/1
f 16/4/1 14/4/1 15/4/1
f 17/1/1 15/1/1 11/1/1
f 17/1/1 16/1/1 15/1/1
f 18/1/1 12/1/1 16/1/1
f 18/1/1 16/1/1 17/1/1
f 25/1/1 22/1/1 21/1/1
f 26/1/1 22/1/1 25/1/1
f 27/1/1 25/1/1 21/1/1
f 27/4/1 26/4/1 25/4/1
f 28/1/1 22/1/1 26/1/1
f 28/4/1 26/4/1 27/4/1
f 29/3/1 20/3/1 19/3/1
f 30/3/1 20/3/1 29/3/1
f 31/1/1 27/1/1 21/1/1
f 31/1/1 28/1/1 27/1/1
f 32/1/1 22/1/1 28/1/1
f 32/1/1 28/1/1 31/1/1
f 33/3/1 24/3/1 23/3/1
f 34/3/1 24/3/1 33/3/1
f 37/1/2 38/1/2 41/1/2
f 41/1/2 38/1/2 42/1/2
f 37/1/2 41/1/2 43/1/2
f 41/4/2 42/4/2 43/4/2
f 42/1/2 38/1/2 44/1/2
f 43/4/2 42/4/2 44/4/2
f 35/3/2 36/3/2 45/3/2
f 45/3/2 36/3/2 46/3/2
f 37/1/2 43/1/2 47/1/2
f 43/1/2 44/1/2 47/1/2
f 44/1/2 38/1/2 48/1/2
f 47/1/2 44/1/2 48/1/2
f 39/3/2 40/3/2 49/3/2
f 49/3/2 40/3/2 50/3/2
f 51/1/2 52/1/2 53/1/2
f 53/1/2 52/1/2 54/1/2
f 51/1/2 53/1/2 55/1/2
f 53/4/2 54/4/2 55/4/2
f 54/1/2 52/1/2 56/1/2
f 55/4/2 54/4/2 56/4/2
f 51/1/2 55/1/2 57/1/2
f 55/1/2 56/1/2 57/1/2
f 56/1/2 52/1/2 58/1/2
f 57/1/2 56/1/2 58/1/2
f 59/3/2 60/3/2 63/3/2
f 63/3/2 60/3/2 64/3/2
f 61/3/2 62/3/2 65/3/2
f 65/3/2 62/3/2 66/3/2
f 63/2/2 64/2/2 67/2/2
f 64/2/2 65/2/2 67/2/2
f 65/2/2 66/2/2 67/2/2
f 67/2/2 66/2/2 68/2/2
f 72/3/3 70/3/3 69/3/3
f 73/2/3 71/2/3 70/2/3
f 73/3/3 70/3/3 72/3/3
f 75/2/3 71/2/3 73/2/3
f 76/3/3 75/3/3 74/3/3
f 77/2/3 71/2/3 75/2/3
f 77/3/3 75/3/3 76/3/3
f 78/2/3 71/2/3 77/2/3
f 81/1/3 80/1/3 79/1/3
f 82/1/3 80/1/3 81/1/3
f 83/1/3 81/1/3 79/1/3
f 83/4/3 82/4/3 81/4/3
f 84/1/3 80/1/3 82/1/3
f 84/4/3 82/4/3 83/4/3
f 85/1/3 83/1/3 79/1/3
f 85/1/3 84/1/3 83/1/3
f 86/1/3 80/1/3 84/1/3
f 86/1/3 84/1/3 85/1/3
f 89/3/3 88/3/3 87/3/3
f 90/3/3 88/3/3 89/3/3
f 93/1/3 92/1/3 91/1/3
f 94/1/3 92/1/3 93/1/3
f 95/1/3 93/1/3 91/1/3
f 95/4/3 94/4/3 93/4/3
f 96/1/3 92/1/3 94/1/3
f 96/4/3 94/4/3 95/4/3
f 97/1/3 95/1/3 91/1/3
f 97/1/3 96/1/3 95/1/3
f 98/1/3 92/1/3 96/1/3
f 98/1/3 96/1/3 97/1/3
f 101/3/3 100/3/3 99/3/3
f 102/3/3 100/3/3 101/3/3
f 103/3/4 104/3/4 105/3/4
f 105/3/4 104/3/4 106/3/4
f 107/1/4 108/1/4 109/1/4
f 109/1/4 108/1/4 110/1/4
f 107/1/4 109/1/4 111/1/4
f 109/4/4 110/4/4 111/4/4
f 110/1/4 108/1/4 112/1/4
f 111/4/4 110/4/4 112/4/4
f 107/1/4 111/1/4 113/1/4
f 111/1/4 112/1/4 113/1/4
f 112/1/4 108/1/4 114/1/4
f 113/1/4 112/1/4 114/1/4
f 115/3/4 116/3/4 117/3/4
f 117/3/4 116/3/4 118/3/4
f 119/1/4 120/1/4 121/1/4
f 121/1/4 120/1/4 122/1/4
f 119/1/4 121/1/4 123/1/4
f 121/4/4 122/4/4 123/4/4
f 122/1/4 120/1/4 124/1/4
f 123/4/4 122/4/4 124/4/4
f 119/1/4 123/1/4 125/1/4
f 123/1/4 124/1/4 125/1/4
f 124/1/4 120/1/4 126/1/4
f 125/1/4 124/1/4 126/1/4
f 127/3/4 128/3/4 130/3/4
f 128/2/4 129/2/4 131/2/4
f 130/3/4 128/3/4 131/3/4
f 131/2/4 129/2/4 133/2/4
f 132/3/4 133/3/4 134/3/4
f 133/2/4 129/2/4 135/2/4
f 134/3/4 133/3/4 135/3/4
f 135/2/4 129/2/4 136/2/4
f 141/3/5 138/3/5 137/3/5
f 142/3/5 140/3/5 139/3/5
f 143/3/5 141/3/5 137/3/5
f 144/3/5 141/3/5 143/3/5
f 145/1/5 142/1/5 141/1/5
f 145/3/5 141/3/5 144/3/5
f 146/3/5 140/3/5 142/3/5
f 146/1/5 142/1/5 145/1/5
f 147/3/5 140/3/5 146/3/5
f 148/3/5 140/3/5 147/3/5
f 150/1/5 145/1/5 144/1/5
f 151/1/5 145/1/5 150/1/5
f 152/1/5 147/1/5 146/1/5
f 153/1/5 147/1/5 152/1/5
f 155/3/5 151/3/5 150/3/5
f 155/3/5 150/3/5 149/3/5
f 155/1/5 152/1/5 151/1/5
f 156/3/5 154/3/5 153/3/5
f 156/1/5 152/1/5 155/1/5
f 156/3/5 153/3/5 152/3/5
f 157/3/5 155/3/5 149/3/5
f 158/3/5 155/3/5 157/3/5
f 159/3/5 154/3/5 156/3/5
f 160/3/5 154/3/5 159/3/5
f 163/2/5 162/2/5 161/2/5
f 164/2/5 162/2/5 163/2/5
f 171/2/5 166/2/5 165/2/5
f 172/2/5 166/2/5 171/2/5
f 173/2/5 168/2/5 167/2/5
f 174/2/5 168/2/5 173/2/5
f 175/2/5 170/2/5 169/2/5
f 176/2/5 170/2/5 175/2/5
f 179/2/5 178/2/5 177/2/5
f 180/2/5 178/2/5 179/2/5
f 181/2/6 182/2/6 183/2/6
f 183/2/6 182/2/6 184/2/6
