# MagicaVoxel @ Ephtracy

# group
o 

# material
mtllib FoodPickerBeefSoft.mtl
usemtl palette

# normals
vn -1 0 0
vn 1 0 0
vn 0 0 1
vn 0 0 -1
vn 0 -1 0
vn 0 1 0

# texcoords
vt 0.306641 0.5
vt 0.392578 0.5
vt 0.537109 0.5
vt 0.548828 0.5
vt 0.841797 0.5
vt 0.958984 0.5

# verts
v -2 0 2
v -2 0 -2
v -2 0.3 1.5
v -2 0.3 -1.7
v -2 0.4 1.8
v -2 0.4 1.6
v -2 0.8 1.8
v -2 0.8 1.6
v -2 0.9 1.5
v -2 0.9 -1.7
v -2 1.3 2
v -2 1.3 -2
v -1.9 0.3 1.5
v -1.9 0.3 -1.7
v -1.9 0.9 1.5
v -1.9 0.9 -1.7
v 1.5 0.3 2
v 1.5 0.3 1.9
v 1.5 0.9 2
v 1.5 0.9 1.9
v 1.7 0.3 -1.9
v 1.7 0.3 -2
v 1.7 0.9 -1.9
v 1.7 0.9 -2
v 1.7 1.1 1.7
v 1.7 1.1 -1.7
v 1.7 1.2 1.7
v 1.7 1.2 -1.7
v 1.7 1.3 1.7
v 1.7 1.3 -1.7
v -1.7 0.3 2
v -1.7 0.3 1.9
v -1.7 0.9 2
v -1.7 0.9 1.9
v -1.7 1.1 1.7
v -1.7 1.1 -1.7
v -1.7 1.2 1.7
v -1.7 1.2 -1.7
v -1.7 1.3 1.7
v -1.7 1.3 -1.7
v -1.5 0.3 -1.9
v -1.5 0.3 -2
v -1.5 0.9 -1.9
v -1.5 0.9 -2
v 1.9 0.3 1.7
v 1.9 0.3 -1.5
v 1.9 0.9 1.7
v 1.9 0.9 -1.5
v 2 0 2
v 2 0 -2
v 2 0.3 1.7
v 2 0.3 -1.5
v 2 0.4 -1.6
v 2 0.4 -1.8
v 2 0.8 -1.6
v 2 0.8 -1.8
v 2 0.9 1.7
v 2 0.9 -1.5
v 2 1.3 2
v 2 1.3 -2
v -2 0 2
v -2 1.3 2
v -1.7 0.3 2
v -1.7 0.9 2
v 1.5 0.3 2
v 1.5 0.9 2
v 1.6 0.4 2
v 1.6 0.8 2
v 1.8 0.4 2
v 1.8 0.8 2
v 2 0 2
v 2 1.3 2
v -1.7 0.3 1.9
v -1.7 0.9 1.9
v 1.5 0.3 1.9
v 1.5 0.9 1.9
v 1.9 0.3 -1.5
v 1.9 0.9 -1.5
v 2 0.3 -1.5
v 2 0.9 -1.5
v -2 0.3 -1.7
v -2 0.9 -1.7
v -1.9 0.3 -1.7
v -1.9 0.9 -1.7
v -1.7 1.1 -1.7
v -1.7 1.2 -1.7
v -1.7 1.3 -1.7
v 1.7 1.1 -1.7
v 1.7 1.2 -1.7
v 1.7 1.3 -1.7
v -1.7 1.1 1.7
v -1.7 1.2 1.7
v -1.7 1.3 1.7
v 1.7 1.1 1.7
v 1.7 1.2 1.7
v 1.7 1.3 1.7
v 1.9 0.3 1.7
v 1.9 0.9 1.7
v 2 0.3 1.7
v 2 0.9 1.7
v -2 0.3 1.5
v -2 0.9 1.5
v -1.9 0.3 1.5
v -1.9 0.9 1.5
v -1.5 0.3 -1.9
v -1.5 0.9 -1.9
v 1.7 0.3 -1.9
v 1.7 0.9 -1.9
v -2 0 -2
v -2 1.3 -2
v -1.8 0.4 -2
v -1.8 0.8 -2
v -1.6 0.4 -2
v -1.6 0.8 -2
v -1.5 0.3 -2
v -1.5 0.9 -2
v 1.7 0.3 -2
v 1.7 0.9 -2
v 2 0 -2
v 2 1.3 -2
v -2 0 2
v 2 0 2
v -2 0 -2
v 2 0 -2
v -1.7 0.9 2
v 1.5 0.9 2
v -1.7 0.9 1.9
v 1.5 0.9 1.9
v 1.9 0.9 1.7
v 2 0.9 1.7
v -2 0.9 1.5
v -1.9 0.9 1.5
v 1.9 0.9 -1.5
v 2 0.9 -1.5
v -2 0.9 -1.7
v -1.9 0.9 -1.7
v -1.5 0.9 -1.9
v 1.7 0.9 -1.9
v -1.5 0.9 -2
v 1.7 0.9 -2
v -1.7 0.3 2
v 1.5 0.3 2
v -1.7 0.3 1.9
v 1.5 0.3 1.9
v 1.9 0.3 1.7
v 2 0.3 1.7
v -2 0.3 1.5
v -1.9 0.3 1.5
v 1.9 0.3 -1.5
v 2 0.3 -1.5
v -2 0.3 -1.7
v -1.9 0.3 -1.7
v -1.5 0.3 -1.9
v 1.7 0.3 -1.9
v -1.5 0.3 -2
v 1.7 0.3 -2
v -1.7 1.1 1.7
v 1.7 1.1 1.7
v -0.4 1.1 1.4
v 0.4 1.1 1.4
v -0.7 1.1 1.3
v -0.4 1.1 1.3
v 0.4 1.1 1.3
v 0.7 1.1 1.3
v -0.8 1.1 1.2
v -0.7 1.1 1.2
v 0.7 1.1 1.2
v 0.8 1.1 1.2
v -1 1.1 1.1
v -0.8 1.1 1.1
v 0.8 1.1 1.1
v 1 1.1 1.1
v -1.1 1.1 1
v -1 1.1 1
v 1 1.1 1
v 1.1 1.1 1
v -1.2 1.1 0.8
v -1.1 1.1 0.8
v 2.38419e-007 1.1 0.8
v 0.7 1.1 0.8
v 1.1 1.1 0.8
v 1.2 1.1 0.8
v -1.3 1.1 0.7
v -1.2 1.1 0.7
v -0.3 1.1 0.7
v 2.38419e-007 1.1 0.7
v 0.7 1.1 0.7
v 1.2 1.1 0.7
v 1.3 1.1 0.7
v -0.2 1.1 0.6
v 2.38419e-007 1.1 0.6
v -0.4 1.1 0.5
v -0.3 1.1 0.5
v -0.2 1.1 0.5
v 0.2 1.1 0.5
v 0.5 1.1 0.5
v -1.4 1.1 0.4
v -1.3 1.1 0.4
v 0.4 1.1 0.4
v 0.5 1.1 0.4
v 1.3 1.1 0.4
v 1.4 1.1 0.4
v 0.1 1.1 0.3
v 0.2 1.1 0.3
v 0.4 1.1 0.3
v 2.38419e-007 1.1 0.2
v 0.1 1.1 0.2
v 0.2 1.1 0.2
v 2.38419e-007 1.1 0.0999999
v 0.1 1.1 0.0999999
v -0.5 1.1 -0.1
v -0.4 1.1 -0.1
v -0.4 1.1 -0.3
v -0.3 1.1 -0.3
v 0.6 1.1 -0.3
v 0.7 1.1 -0.3
v -1.4 1.1 -0.4
v -1.3 1.1 -0.4
v 0.4 1.1 -0.4
v 0.6 1.1 -0.4
v 1.3 1.1 -0.4
v 1.4 1.1 -0.4
v 0.3 1.1 -0.5
v 0.4 1.1 -0.5
v 0.1 1.1 -0.6
v 0.3 1.1 -0.6
v -1.3 1.1 -0.7
v -1.2 1.1 -0.7
v -0.5 1.1 -0.7
v -0.4 1.1 -0.7
v 0.1 1.1 -0.7
v 1.2 1.1 -0.7
v 1.3 1.1 -0.7
v -1.2 1.1 -0.8
v -1.1 1.1 -0.8
v 1.1 1.1 -0.8
v 1.2 1.1 -0.8
v -1.1 1.1 -1
v -1 1.1 -1
v 1 1.1 -1
v 1.1 1.1 -1
v -1 1.1 -1.1
v -0.8 1.1 -1.1
v 0.8 1.1 -1.1
v 1 1.1 -1.1
v -0.8 1.1 -1.2
v -0.7 1.1 -1.2
v 0.7 1.1 -1.2
v 0.8 1.1 -1.2
v -0.7 1.1 -1.3
v -0.4 1.1 -1.3
v 0.4 1.1 -1.3
v 0.7 1.1 -1.3
v -0.4 1.1 -1.4
v 0.4 1.1 -1.4
v -1.7 1.1 -1.7
v 1.7 1.1 -1.7
v -2 1.3 2
v 2 1.3 2
v -1.7 1.3 1.7
v 1.7 1.3 1.7
v -1.7 1.3 -1.7
v 1.7 1.3 -1.7
v -2 1.3 -2
v 2 1.3 -2

# faces
f 3/1/1 2/1/1 1/1/1
f 4/1/1 2/1/1 3/1/1
f 5/1/1 3/1/1 1/1/1
f 6/1/1 3/1/1 5/1/1
f 7/1/1 5/1/1 1/1/1
f 7/3/1 6/3/1 5/3/1
f 8/1/1 3/1/1 6/1/1
f 8/3/1 6/3/1 7/3/1
f 9/1/1 8/1/1 7/1/1
f 9/1/1 3/1/1 8/1/1
f 10/1/1 2/1/1 4/1/1
f 11/1/1 9/1/1 7/1/1
f 11/1/1 10/1/1 9/1/1
f 11/1/1 7/1/1 1/1/1
f 12/1/1 2/1/1 10/1/1
f 12/1/1 10/1/1 11/1/1
f 15/1/1 14/1/1 13/1/1
f 16/1/1 14/1/1 15/1/1
f 19/1/1 18/1/1 17/1/1
f 20/1/1 18/1/1 19/1/1
f 23/1/1 22/1/1 21/1/1
f 24/1/1 22/1/1 23/1/1
f 27/4/1 26/4/1 25/4/1
f 28/4/1 26/4/1 27/4/1
f 29/1/1 28/1/1 27/1/1
f 30/1/1 28/1/1 29/1/1
f 31/1/2 32/1/2 33/1/2
f 33/1/2 32/1/2 34/1/2
f 35/4/2 36/4/2 37/4/2
f 37/4/2 36/4/2 38/4/2
f 37/1/2 38/1/2 39/1/2
f 39/1/2 38/1/2 40/1/2
f 41/1/2 42/1/2 43/1/2
f 43/1/2 42/1/2 44/1/2
f 45/1/2 46/1/2 47/1/2
f 47/1/2 46/1/2 48/1/2
f 49/1/2 50/1/2 51/1/2
f 51/1/2 50/1/2 52/1/2
f 52/1/2 50/1/2 53/1/2
f 53/1/2 50/1/2 54/1/2
f 52/1/2 53/1/2 55/1/2
f 53/3/2 54/3/2 55/3/2
f 54/1/2 50/1/2 56/1/2
f 55/3/2 54/3/2 56/3/2
f 49/1/2 51/1/2 57/1/2
f 52/1/2 55/1/2 58/1/2
f 55/1/2 56/1/2 58/1/2
f 49/1/2 57/1/2 59/1/2
f 57/1/2 58/1/2 59/1/2
f 56/1/2 50/1/2 60/1/2
f 59/1/2 58/1/2 60/1/2
f 58/1/2 56/1/2 60/1/2
f 63/1/3 62/1/3 61/1/3
f 64/1/3 62/1/3 63/1/3
f 65/1/3 63/1/3 61/1/3
f 66/1/3 62/1/3 64/1/3
f 67/1/3 66/1/3 65/1/3
f 68/1/3 66/1/3 67/1/3
f 69/1/3 67/1/3 65/1/3
f 69/3/3 68/3/3 67/3/3
f 70/1/3 66/1/3 68/1/3
f 70/3/3 68/3/3 69/3/3
f 71/1/3 65/1/3 61/1/3
f 71/1/3 69/1/3 65/1/3
f 71/1/3 70/1/3 69/1/3
f 72/1/3 66/1/3 70/1/3
f 72/1/3 70/1/3 71/1/3
f 72/1/3 62/1/3 66/1/3
f 75/1/3 74/1/3 73/1/3
f 76/1/3 74/1/3 75/1/3
f 79/1/3 78/1/3 77/1/3
f 80/1/3 78/1/3 79/1/3
f 83/1/3 82/1/3 81/1/3
f 84/1/3 82/1/3 83/1/3
f 88/4/3 86/4/3 85/4/3
f 89/1/3 87/1/3 86/1/3
f 89/4/3 86/4/3 88/4/3
f 90/1/3 87/1/3 89/1/3
f 91/4/4 92/4/4 94/4/4
f 92/1/4 93/1/4 95/1/4
f 94/4/4 92/4/4 95/4/4
f 95/1/4 93/1/4 96/1/4
f 97/1/4 98/1/4 99/1/4
f 99/1/4 98/1/4 100/1/4
f 101/1/4 102/1/4 103/1/4
f 103/1/4 102/1/4 104/1/4
f 105/1/4 106/1/4 107/1/4
f 107/1/4 106/1/4 108/1/4
f 109/1/4 110/1/4 111/1/4
f 111/1/4 110/1/4 112/1/4
f 109/1/4 111/1/4 113/1/4
f 111/3/4 112/3/4 113/3/4
f 112/1/4 110/1/4 114/1/4
f 113/3/4 112/3/4 114/3/4
f 109/1/4 113/1/4 115/1/4
f 113/1/4 114/1/4 115/1/4
f 114/1/4 110/1/4 116/1/4
f 115/1/4 114/1/4 116/1/4
f 109/1/4 115/1/4 117/1/4
f 116/1/4 110/1/4 118/1/4
f 109/1/4 117/1/4 119/1/4
f 117/1/4 118/1/4 119/1/4
f 118/1/4 110/1/4 120/1/4
f 119/1/4 118/1/4 120/1/4
f 123/1/5 122/1/5 121/1/5
f 124/1/5 122/1/5 123/1/5
f 127/1/5 126/1/5 125/1/5
f 128/1/5 126/1/5 127/1/5
f 133/1/5 130/1/5 129/1/5
f 134/1/5 130/1/5 133/1/5
f 135/1/5 132/1/5 131/1/5
f 136/1/5 132/1/5 135/1/5
f 139/1/5 138/1/5 137/1/5
f 140/1/5 138/1/5 139/1/5
f 141/1/6 142/1/6 143/1/6
f 143/1/6 142/1/6 144/1/6
f 145/1/6 146/1/6 149/1/6
f 149/1/6 146/1/6 150/1/6
f 147/1/6 148/1/6 151/1/6
f 151/1/6 148/1/6 152/1/6
f 153/1/6 154/1/6 155/1/6
f 155/1/6 154/1/6 156/1/6
f 157/1/6 158/1/6 159/1/6
f 159/1/6 158/1/6 160/1/6
f 157/1/6 159/1/6 161/1/6
f 159/6/6 160/6/6 162/6/6
f 161/1/6 159/1/6 162/1/6
f 160/1/6 158/1/6 163/1/6
f 162/6/6 160/6/6 163/6/6
f 163/1/6 158/1/6 164/1/6
f 157/1/6 161/1/6 165/1/6
f 161/6/6 162/6/6 166/6/6
f 165/1/6 161/1/6 166/1/6
f 162/6/6 163/6/6 166/6/6
f 163/6/6 164/6/6 166/6/6
f 164/1/6 158/1/6 167/1/6
f 166/6/6 164/6/6 167/6/6
f 167/1/6 158/1/6 168/1/6
f 157/1/6 165/1/6 169/1/6
f 165/6/6 166/6/6 170/6/6
f 169/1/6 165/1/6 170/1/6
f 166/6/6 167/6/6 170/6/6
f 167/6/6 168/6/6 170/6/6
f 168/1/6 158/1/6 171/1/6
f 170/6/6 168/6/6 171/6/6
f 171/1/6 158/1/6 172/1/6
f 157/1/6 169/1/6 173/1/6
f 169/6/6 170/6/6 174/6/6
f 173/1/6 169/1/6 174/1/6
f 170/6/6 171/6/6 174/6/6
f 171/6/6 172/6/6 174/6/6
f 172/1/6 158/1/6 175/1/6
f 174/6/6 172/6/6 175/6/6
f 175/1/6 158/1/6 176/1/6
f 157/1/6 173/1/6 177/1/6
f 173/6/6 174/6/6 178/6/6
f 177/1/6 173/1/6 178/1/6
f 174/6/6 175/6/6 178/6/6
f 175/6/6 176/6/6 178/6/6
f 178/6/6 176/6/6 179/6/6
f 179/6/6 176/6/6 180/6/6
f 176/1/6 158/1/6 181/1/6
f 180/6/6 176/6/6 181/6/6
f 181/1/6 158/1/6 182/1/6
f 157/1/6 177/1/6 183/1/6
f 177/6/6 178/6/6 184/6/6
f 183/1/6 177/1/6 184/1/6
f 178/6/6 179/6/6 184/6/6
f 184/6/6 179/6/6 185/6/6
f 179/2/6 180/2/6 186/2/6
f 185/6/6 179/6/6 186/6/6
f 181/6/6 182/6/6 187/6/6
f 186/2/6 180/2/6 187/2/6
f 180/6/6 181/6/6 187/6/6
f 182/1/6 158/1/6 188/1/6
f 187/6/6 182/6/6 188/6/6
f 188/1/6 158/1/6 189/1/6
f 185/2/6 186/2/6 190/2/6
f 186/5/6 187/5/6 191/5/6
f 190/2/6 186/2/6 191/2/6
f 184/6/6 185/6/6 192/6/6
f 183/6/6 184/6/6 192/6/6
f 185/2/6 190/2/6 193/2/6
f 192/6/6 185/6/6 193/6/6
f 190/5/6 191/5/6 194/5/6
f 193/2/6 190/2/6 194/2/6
f 191/5/6 187/5/6 195/5/6
f 194/5/6 191/5/6 195/5/6
f 195/5/6 187/5/6 196/5/6
f 157/1/6 183/1/6 197/1/6
f 183/6/6 192/6/6 198/6/6
f 197/1/6 183/1/6 198/1/6
f 195/2/6 196/2/6 199/2/6
f 196/5/6 187/5/6 200/5/6
f 199/2/6 196/2/6 200/2/6
f 189/1/6 158/1/6 201/1/6
f 187/6/6 188/6/6 201/6/6
f 188/6/6 189/6/6 201/6/6
f 201/1/6 158/1/6 202/1/6
f 193/5/6 194/5/6 203/5/6
f 194/5/6 195/5/6 203/5/6
f 195/2/6 199/2/6 204/2/6
f 203/5/6 195/5/6 204/5/6
f 199/5/6 200/5/6 205/5/6
f 204/2/6 199/2/6 205/2/6
f 193/5/6 203/5/6 206/5/6
f 203/2/6 204/2/6 207/2/6
f 206/5/6 203/5/6 207/5/6
f 204/5/6 205/5/6 208/5/6
f 207/2/6 204/2/6 208/2/6
f 193/5/6 206/5/6 209/5/6
f 206/2/6 207/2/6 209/2/6
f 207/5/6 208/5/6 210/5/6
f 209/2/6 207/2/6 210/2/6
f 197/6/6 198/6/6 211/6/6
f 198/6/6 192/6/6 211/6/6
f 192/2/6 193/2/6 212/2/6
f 211/6/6 192/6/6 212/6/6
f 211/2/6 212/2/6 213/2/6
f 212/2/6 193/2/6 213/2/6
f 209/5/6 210/5/6 214/5/6
f 213/2/6 193/2/6 214/2/6
f 193/5/6 209/5/6 214/5/6
f 205/5/6 200/5/6 215/5/6
f 214/5/6 210/5/6 215/5/6
f 200/5/6 187/5/6 215/5/6
f 208/5/6 205/5/6 215/5/6
f 210/5/6 208/5/6 215/5/6
f 187/6/6 201/6/6 216/6/6
f 215/5/6 187/5/6 216/5/6
f 201/6/6 202/6/6 216/6/6
f 157/1/6 197/1/6 217/1/6
f 197/6/6 211/6/6 217/6/6
f 217/6/6 211/6/6 218/6/6
f 213/5/6 214/5/6 219/5/6
f 214/5/6 215/5/6 219/5/6
f 215/6/6 216/6/6 220/6/6
f 219/5/6 215/5/6 220/5/6
f 216/6/6 202/6/6 221/6/6
f 220/6/6 216/6/6 221/6/6
f 202/1/6 158/1/6 222/1/6
f 221/6/6 202/6/6 222/6/6
f 213/5/6 219/5/6 223/5/6
f 220/6/6 221/6/6 224/6/6
f 223/5/6 219/5/6 224/5/6
f 219/6/6 220/6/6 224/6/6
f 213/5/6 223/5/6 225/5/6
f 223/6/6 224/6/6 226/6/6
f 225/5/6 223/5/6 226/5/6
f 218/6/6 211/6/6 227/6/6
f 217/1/6 218/1/6 227/1/6
f 227/6/6 211/6/6 228/6/6
f 211/2/6 213/2/6 229/2/6
f 228/6/6 211/6/6 229/6/6
f 213/5/6 225/5/6 230/5/6
f 229/2/6 213/2/6 230/2/6
f 225/6/6 226/6/6 231/6/6
f 230/5/6 225/5/6 231/5/6
f 224/6/6 221/6/6 232/6/6
f 231/6/6 226/6/6 232/6/6
f 226/6/6 224/6/6 232/6/6
f 221/1/6 222/1/6 233/1/6
f 232/6/6 221/6/6 233/6/6
f 230/6/6 231/6/6 234/6/6
f 231/6/6 232/6/6 234/6/6
f 229/6/6 230/6/6 234/6/6
f 228/6/6 229/6/6 234/6/6
f 227/1/6 228/1/6 234/1/6
f 234/6/6 232/6/6 235/6/6
f 235/6/6 232/6/6 236/6/6
f 232/1/6 233/1/6 237/1/6
f 236/6/6 232/6/6 237/6/6
f 235/6/6 236/6/6 238/6/6
f 234/1/6 235/1/6 238/1/6
f 238/6/6 236/6/6 239/6/6
f 239/6/6 236/6/6 240/6/6
f 236/1/6 237/1/6 241/1/6
f 240/6/6 236/6/6 241/6/6
f 239/6/6 240/6/6 242/6/6
f 238/1/6 239/1/6 242/1/6
f 242/6/6 240/6/6 243/6/6
f 243/6/6 240/6/6 244/6/6
f 240/1/6 241/1/6 245/1/6
f 244/6/6 240/6/6 245/6/6
f 243/6/6 244/6/6 246/6/6
f 242/1/6 243/1/6 246/1/6
f 246/6/6 244/6/6 247/6/6
f 247/6/6 244/6/6 248/6/6
f 244/1/6 245/1/6 249/1/6
f 248/6/6 244/6/6 249/6/6
f 247/6/6 248/6/6 250/6/6
f 246/1/6 247/1/6 250/1/6
f 250/6/6 248/6/6 251/6/6
f 251/6/6 248/6/6 252/6/6
f 248/1/6 249/1/6 253/1/6
f 252/6/6 248/6/6 253/6/6
f 251/6/6 252/6/6 254/6/6
f 250/1/6 251/1/6 254/1/6
f 252/1/6 253/1/6 255/1/6
f 254/6/6 252/6/6 255/6/6
f 217/1/6 227/1/6 256/1/6
f 157/1/6 217/1/6 256/1/6
f 254/1/6 255/1/6 256/1/6
f 250/1/6 254/1/6 256/1/6
f 246/1/6 250/1/6 256/1/6
f 227/1/6 234/1/6 256/1/6
f 242/1/6 246/1/6 256/1/6
f 234/1/6 238/1/6 256/1/6
f 238/1/6 242/1/6 256/1/6
f 233/1/6 222/1/6 257/1/6
f 256/1/6 255/1/6 257/1/6
f 237/1/6 233/1/6 257/1/6
f 245/1/6 241/1/6 257/1/6
f 241/1/6 237/1/6 257/1/6
f 249/1/6 245/1/6 257/1/6
f 222/1/6 158/1/6 257/1/6
f 253/1/6 249/1/6 257/1/6
f 255/1/6 253/1/6 257/1/6
f 258/1/6 259/1/6 260/1/6
f 260/1/6 259/1/6 261/1/6
f 258/1/6 260/1/6 262/1/6
f 261/1/6 259/1/6 263/1/6
f 258/1/6 262/1/6 264/1/6
f 262/1/6 263/1/6 264/1/6
f 263/1/6 259/1/6 265/1/6
f 264/1/6 263/1/6 265/1/6
