# MagicaVoxel @ Ephtracy

# group
o 

# material
mtllib FoodPickerTomatoSoft.mtl
usemtl palette

# normals
vn -1 0 0
vn 1 0 0
vn 0 0 1
vn 0 0 -1
vn 0 -1 0
vn 0 1 0

# texcoords
vt 0.306641 0.5
vt 0.537109 0.5
vt 0.548828 0.5
vt 0.841797 0.5
vt 0.904297 0.5
vt 0.958984 0.5
vt 0.962891 0.5

# verts
v -2 0 2
v -2 0 -2
v -2 0.3 1.5
v -2 0.3 -1.7
v -2 0.4 1.8
v -2 0.4 1.6
v -2 0.8 1.8
v -2 0.8 1.6
v -2 0.9 1.5
v -2 0.9 -1.7
v -2 1.3 2
v -2 1.3 -2
v -1.9 0.3 1.5
v -1.9 0.3 -1.7
v -1.9 0.9 1.5
v -1.9 0.9 -1.7
v 1.5 0.3 2
v 1.5 0.3 1.9
v 1.5 0.9 2
v 1.5 0.9 1.9
v 1.7 0.3 -1.9
v 1.7 0.3 -2
v 1.7 0.9 -1.9
v 1.7 0.9 -2
v 1.7 1.1 1.7
v 1.7 1.1 -1.7
v 1.7 1.2 1.7
v 1.7 1.2 -1.7
v 1.7 1.3 1.7
v 1.7 1.3 -1.7
v -1.7 0.3 2
v -1.7 0.3 1.9
v -1.7 0.9 2
v -1.7 0.9 1.9
v -1.7 1.1 1.7
v -1.7 1.1 -1.7
v -1.7 1.2 1.7
v -1.7 1.2 -1.7
v -1.7 1.3 1.7
v -1.7 1.3 -1.7
v -1.5 0.3 -1.9
v -1.5 0.3 -2
v -1.5 0.9 -1.9
v -1.5 0.9 -2
v 1.9 0.3 1.7
v 1.9 0.3 -1.5
v 1.9 0.9 1.7
v 1.9 0.9 -1.5
v 2 0 2
v 2 0 -2
v 2 0.3 1.7
v 2 0.3 -1.5
v 2 0.4 -1.6
v 2 0.4 -1.8
v 2 0.8 -1.6
v 2 0.8 -1.8
v 2 0.9 1.7
v 2 0.9 -1.5
v 2 1.3 2
v 2 1.3 -2
v -2 0 2
v -2 1.3 2
v -1.7 0.3 2
v -1.7 0.9 2
v 1.5 0.3 2
v 1.5 0.9 2
v 1.6 0.4 2
v 1.6 0.8 2
v 1.8 0.4 2
v 1.8 0.8 2
v 2 0 2
v 2 1.3 2
v -1.7 0.3 1.9
v -1.7 0.9 1.9
v 1.5 0.3 1.9
v 1.5 0.9 1.9
v 1.9 0.3 -1.5
v 1.9 0.9 -1.5
v 2 0.3 -1.5
v 2 0.9 -1.5
v -2 0.3 -1.7
v -2 0.9 -1.7
v -1.9 0.3 -1.7
v -1.9 0.9 -1.7
v -1.7 1.1 -1.7
v -1.7 1.2 -1.7
v -1.7 1.3 -1.7
v 1.7 1.1 -1.7
v 1.7 1.2 -1.7
v 1.7 1.3 -1.7
v -1.7 1.1 1.7
v -1.7 1.2 1.7
v -1.7 1.3 1.7
v 1.7 1.1 1.7
v 1.7 1.2 1.7
v 1.7 1.3 1.7
v 1.9 0.3 1.7
v 1.9 0.9 1.7
v 2 0.3 1.7
v 2 0.9 1.7
v -2 0.3 1.5
v -2 0.9 1.5
v -1.9 0.3 1.5
v -1.9 0.9 1.5
v -1.5 0.3 -1.9
v -1.5 0.9 -1.9
v 1.7 0.3 -1.9
v 1.7 0.9 -1.9
v -2 0 -2
v -2 1.3 -2
v -1.8 0.4 -2
v -1.8 0.8 -2
v -1.6 0.4 -2
v -1.6 0.8 -2
v -1.5 0.3 -2
v -1.5 0.9 -2
v 1.7 0.3 -2
v 1.7 0.9 -2
v 2 0 -2
v 2 1.3 -2
v -2 0 2
v 2 0 2
v -2 0 -2
v 2 0 -2
v -1.7 0.9 2
v 1.5 0.9 2
v -1.7 0.9 1.9
v 1.5 0.9 1.9
v 1.9 0.9 1.7
v 2 0.9 1.7
v -2 0.9 1.5
v -1.9 0.9 1.5
v 1.9 0.9 -1.5
v 2 0.9 -1.5
v -2 0.9 -1.7
v -1.9 0.9 -1.7
v -1.5 0.9 -1.9
v 1.7 0.9 -1.9
v -1.5 0.9 -2
v 1.7 0.9 -2
v -1.7 0.3 2
v 1.5 0.3 2
v -1.7 0.3 1.9
v 1.5 0.3 1.9
v 1.9 0.3 1.7
v 2 0.3 1.7
v -2 0.3 1.5
v -1.9 0.3 1.5
v 1.9 0.3 -1.5
v 2 0.3 -1.5
v -2 0.3 -1.7
v -1.9 0.3 -1.7
v -1.5 0.3 -1.9
v 1.7 0.3 -1.9
v -1.5 0.3 -2
v 1.7 0.3 -2
v -1.7 1.1 1.7
v 1.7 1.1 1.7
v -0.4 1.1 1.4
v 0.4 1.1 1.4
v -0.7 1.1 1.3
v -0.4 1.1 1.3
v 0.4 1.1 1.3
v 0.7 1.1 1.3
v -0.8 1.1 1.2
v -0.7 1.1 1.2
v 0.7 1.1 1.2
v 0.8 1.1 1.2
v -1 1.1 1.1
v -0.8 1.1 1.1
v 0.8 1.1 1.1
v 1 1.1 1.1
v -1.1 1.1 1
v -1 1.1 1
v -0.4 1.1 1
v 0.4 1.1 1
v 1 1.1 1
v 1.1 1.1 1
v -0.6 1.1 0.9
v -0.4 1.1 0.9
v 0.4 1.1 0.9
v 0.6 1.1 0.9
v -1.2 1.1 0.8
v -1.1 1.1 0.8
v -0.7 1.1 0.8
v -0.6 1.1 0.8
v 0.6 1.1 0.8
v 0.7 1.1 0.8
v 1.1 1.1 0.8
v 1.2 1.1 0.8
v -1.3 1.1 0.7
v -1.2 1.1 0.7
v -0.8 1.1 0.7
v -0.7 1.1 0.7
v 0.7 1.1 0.7
v 0.8 1.1 0.7
v 1.2 1.1 0.7
v 1.3 1.1 0.7
v -0.9 1.1 0.6
v -0.8 1.1 0.6
v 0.8 1.1 0.6
v 0.9 1.1 0.6
v -1.4 1.1 0.4
v -1.3 1.1 0.4
v -1 1.1 0.4
v -0.9 1.1 0.4
v 0.2 1.1 0.4
v 0.3 1.1 0.4
v 0.9 1.1 0.4
v 1 1.1 0.4
v 1.3 1.1 0.4
v 1.4 1.1 0.4
v 0.5 1.1 0.3
v 0.6 1.1 0.3
v -0.4 1.1 0.2
v -0.3 1.1 0.2
v 0.1 1.1 0.2
v 0.2 1.1 0.2
v 0.3 1.1 0.2
v 0.4 1.1 0.2
v 0.5 1.1 0.2
v 0.6 1.1 0.2
v -0.4 1.1 0.0999999
v -0.3 1.1 0.0999999
v 2.38419e-007 1.1 0.0999999
v 0.1 1.1 0.0999999
v 0.2 1.1 0.0999999
v 0.4 1.1 0.0999999
v 0.5 1.1 0.0999999
v -0.4 1.1 -2.38419e-007
v -0.2 1.1 -2.38419e-007
v 0.4 1.1 -2.38419e-007
v 0.5 1.1 -2.38419e-007
v 2.38419e-007 1.1 -0.1
v 0.1 1.1 -0.1
v 0.2 1.1 -0.1
v 0.5 1.1 -0.1
v -0.4 1.1 -0.2
v -0.2 1.1 -0.2
v 0.1 1.1 -0.2
v 0.2 1.1 -0.2
v 0.3 1.1 -0.2
v -1.4 1.1 -0.4
v -1.3 1.1 -0.4
v -1 1.1 -0.4
v -0.9 1.1 -0.4
v 0.2 1.1 -0.4
v 0.3 1.1 -0.4
v 0.9 1.1 -0.4
v 1 1.1 -0.4
v 1.3 1.1 -0.4
v 1.4 1.1 -0.4
v -0.9 1.1 -0.6
v -0.8 1.1 -0.6
v 0.8 1.1 -0.6
v 0.9 1.1 -0.6
v -1.3 1.1 -0.7
v -1.2 1.1 -0.7
v -0.8 1.1 -0.7
v -0.7 1.1 -0.7
v 0.7 1.1 -0.7
v 0.8 1.1 -0.7
v 1.2 1.1 -0.7
v 1.3 1.1 -0.7
v -1.2 1.1 -0.8
v -1.1 1.1 -0.8
v -0.7 1.1 -0.8
v -0.6 1.1 -0.8
v 0.6 1.1 -0.8
v 0.7 1.1 -0.8
v 1.1 1.1 -0.8
v 1.2 1.1 -0.8
v -0.6 1.1 -0.9
v -0.4 1.1 -0.9
v 0.4 1.1 -0.9
v 0.6 1.1 -0.9
v -1.1 1.1 -1
v -1 1.1 -1
v -0.4 1.1 -1
v 0.4 1.1 -1
v 1 1.1 -1
v 1.1 1.1 -1
v -1 1.1 -1.1
v -0.8 1.1 -1.1
v 0.8 1.1 -1.1
v 1 1.1 -1.1
v -0.8 1.1 -1.2
v -0.7 1.1 -1.2
v 0.7 1.1 -1.2
v 0.8 1.1 -1.2
v -0.7 1.1 -1.3
v -0.4 1.1 -1.3
v 0.4 1.1 -1.3
v 0.7 1.1 -1.3
v -0.4 1.1 -1.4
v 0.4 1.1 -1.4
v -1.7 1.1 -1.7
v 1.7 1.1 -1.7
v -2 1.3 2
v 2 1.3 2
v -1.7 1.3 1.7
v 1.7 1.3 1.7
v -1.7 1.3 -1.7
v 1.7 1.3 -1.7
v -2 1.3 -2
v 2 1.3 -2

# faces
f 3/1/1 2/1/1 1/1/1
f 4/1/1 2/1/1 3/1/1
f 5/1/1 3/1/1 1/1/1
f 6/1/1 3/1/1 5/1/1
f 7/1/1 5/1/1 1/1/1
f 7/2/1 6/2/1 5/2/1
f 8/1/1 3/1/1 6/1/1
f 8/2/1 6/2/1 7/2/1
f 9/1/1 8/1/1 7/1/1
f 9/1/1 3/1/1 8/1/1
f 10/1/1 2/1/1 4/1/1
f 11/1/1 9/1/1 7/1/1
f 11/1/1 10/1/1 9/1/1
f 11/1/1 7/1/1 1/1/1
f 12/1/1 2/1/1 10/1/1
f 12/1/1 10/1/1 11/1/1
f 15/1/1 14/1/1 13/1/1
f 16/1/1 14/1/1 15/1/1
f 19/1/1 18/1/1 17/1/1
f 20/1/1 18/1/1 19/1/1
f 23/1/1 22/1/1 21/1/1
f 24/1/1 22/1/1 23/1/1
f 27/3/1 26/3/1 25/3/1
f 28/3/1 26/3/1 27/3/1
f 29/1/1 28/1/1 27/1/1
f 30/1/1 28/1/1 29/1/1
f 31/1/2 32/1/2 33/1/2
f 33/1/2 32/1/2 34/1/2
f 35/3/2 36/3/2 37/3/2
f 37/3/2 36/3/2 38/3/2
f 37/1/2 38/1/2 39/1/2
f 39/1/2 38/1/2 40/1/2
f 41/1/2 42/1/2 43/1/2
f 43/1/2 42/1/2 44/1/2
f 45/1/2 46/1/2 47/1/2
f 47/1/2 46/1/2 48/1/2
f 49/1/2 50/1/2 51/1/2
f 51/1/2 50/1/2 52/1/2
f 52/1/2 50/1/2 53/1/2
f 53/1/2 50/1/2 54/1/2
f 52/1/2 53/1/2 55/1/2
f 53/2/2 54/2/2 55/2/2
f 54/1/2 50/1/2 56/1/2
f 55/2/2 54/2/2 56/2/2
f 49/1/2 51/1/2 57/1/2
f 52/1/2 55/1/2 58/1/2
f 55/1/2 56/1/2 58/1/2
f 49/1/2 57/1/2 59/1/2
f 57/1/2 58/1/2 59/1/2
f 56/1/2 50/1/2 60/1/2
f 59/1/2 58/1/2 60/1/2
f 58/1/2 56/1/2 60/1/2
f 63/1/3 62/1/3 61/1/3
f 64/1/3 62/1/3 63/1/3
f 65/1/3 63/1/3 61/1/3
f 66/1/3 62/1/3 64/1/3
f 67/1/3 66/1/3 65/1/3
f 68/1/3 66/1/3 67/1/3
f 69/1/3 67/1/3 65/1/3
f 69/2/3 68/2/3 67/2/3
f 70/1/3 66/1/3 68/1/3
f 70/2/3 68/2/3 69/2/3
f 71/1/3 65/1/3 61/1/3
f 71/1/3 69/1/3 65/1/3
f 71/1/3 70/1/3 69/1/3
f 72/1/3 66/1/3 70/1/3
f 72/1/3 70/1/3 71/1/3
f 72/1/3 62/1/3 66/1/3
f 75/1/3 74/1/3 73/1/3
f 76/1/3 74/1/3 75/1/3
f 79/1/3 78/1/3 77/1/3
f 80/1/3 78/1/3 79/1/3
f 83/1/3 82/1/3 81/1/3
f 84/1/3 82/1/3 83/1/3
f 88/3/3 86/3/3 85/3/3
f 89/1/3 87/1/3 86/1/3
f 89/3/3 86/3/3 88/3/3
f 90/1/3 87/1/3 89/1/3
f 91/3/4 92/3/4 94/3/4
f 92/1/4 93/1/4 95/1/4
f 94/3/4 92/3/4 95/3/4
f 95/1/4 93/1/4 96/1/4
f 97/1/4 98/1/4 99/1/4
f 99/1/4 98/1/4 100/1/4
f 101/1/4 102/1/4 103/1/4
f 103/1/4 102/1/4 104/1/4
f 105/1/4 106/1/4 107/1/4
f 107/1/4 106/1/4 108/1/4
f 109/1/4 110/1/4 111/1/4
f 111/1/4 110/1/4 112/1/4
f 109/1/4 111/1/4 113/1/4
f 111/2/4 112/2/4 113/2/4
f 112/1/4 110/1/4 114/1/4
f 113/2/4 112/2/4 114/2/4
f 109/1/4 113/1/4 115/1/4
f 113/1/4 114/1/4 115/1/4
f 114/1/4 110/1/4 116/1/4
f 115/1/4 114/1/4 116/1/4
f 109/1/4 115/1/4 117/1/4
f 116/1/4 110/1/4 118/1/4
f 109/1/4 117/1/4 119/1/4
f 117/1/4 118/1/4 119/1/4
f 118/1/4 110/1/4 120/1/4
f 119/1/4 118/1/4 120/1/4
f 123/1/5 122/1/5 121/1/5
f 124/1/5 122/1/5 123/1/5
f 127/1/5 126/1/5 125/1/5
f 128/1/5 126/1/5 127/1/5
f 133/1/5 130/1/5 129/1/5
f 134/1/5 130/1/5 133/1/5
f 135/1/5 132/1/5 131/1/5
f 136/1/5 132/1/5 135/1/5
f 139/1/5 138/1/5 137/1/5
f 140/1/5 138/1/5 139/1/5
f 141/1/6 142/1/6 143/1/6
f 143/1/6 142/1/6 144/1/6
f 145/1/6 146/1/6 149/1/6
f 149/1/6 146/1/6 150/1/6
f 147/1/6 148/1/6 151/1/6
f 151/1/6 148/1/6 152/1/6
f 153/1/6 154/1/6 155/1/6
f 155/1/6 154/1/6 156/1/6
f 157/1/6 158/1/6 159/1/6
f 159/1/6 158/1/6 160/1/6
f 157/1/6 159/1/6 161/1/6
f 159/6/6 160/6/6 162/6/6
f 161/1/6 159/1/6 162/1/6
f 160/1/6 158/1/6 163/1/6
f 162/6/6 160/6/6 163/6/6
f 163/1/6 158/1/6 164/1/6
f 157/1/6 161/1/6 165/1/6
f 161/6/6 162/6/6 166/6/6
f 165/1/6 161/1/6 166/1/6
f 162/6/6 163/6/6 166/6/6
f 163/6/6 164/6/6 166/6/6
f 164/1/6 158/1/6 167/1/6
f 166/6/6 164/6/6 167/6/6
f 167/1/6 158/1/6 168/1/6
f 157/1/6 165/1/6 169/1/6
f 165/6/6 166/6/6 170/6/6
f 169/1/6 165/1/6 170/1/6
f 166/6/6 167/6/6 170/6/6
f 167/6/6 168/6/6 170/6/6
f 168/1/6 158/1/6 171/1/6
f 170/6/6 168/6/6 171/6/6
f 171/1/6 158/1/6 172/1/6
f 157/1/6 169/1/6 173/1/6
f 169/6/6 170/6/6 174/6/6
f 173/1/6 169/1/6 174/1/6
f 170/6/6 171/6/6 174/6/6
f 171/6/6 172/6/6 174/6/6
f 174/6/6 172/6/6 175/6/6
f 175/6/6 172/6/6 176/6/6
f 172/1/6 158/1/6 177/1/6
f 176/6/6 172/6/6 177/6/6
f 177/1/6 158/1/6 178/1/6
f 173/6/6 174/6/6 179/6/6
f 174/6/6 175/6/6 179/6/6
f 175/4/6 176/4/6 180/4/6
f 179/6/6 175/6/6 180/6/6
f 177/6/6 178/6/6 181/6/6
f 180/4/6 176/4/6 181/4/6
f 176/6/6 177/6/6 181/6/6
f 181/6/6 178/6/6 182/6/6
f 157/1/6 173/1/6 183/1/6
f 173/6/6 179/6/6 184/6/6
f 183/1/6 173/1/6 184/1/6
f 184/6/6 179/6/6 185/6/6
f 179/4/6 180/4/6 186/4/6
f 185/6/6 179/6/6 186/6/6
f 180/4/6 181/4/6 186/4/6
f 181/4/6 182/4/6 186/4/6
f 182/6/6 178/6/6 187/6/6
f 186/4/6 182/4/6 187/4/6
f 187/6/6 178/6/6 188/6/6
f 178/1/6 158/1/6 189/1/6
f 188/6/6 178/6/6 189/6/6
f 189/1/6 158/1/6 190/1/6
f 157/1/6 183/1/6 191/1/6
f 184/6/6 185/6/6 192/6/6
f 191/1/6 183/1/6 192/1/6
f 183/6/6 184/6/6 192/6/6
f 192/6/6 185/6/6 193/6/6
f 185/4/6 186/4/6 194/4/6
f 193/6/6 185/6/6 194/6/6
f 187/4/6 188/4/6 194/4/6
f 186/4/6 187/4/6 194/4/6
f 189/6/6 190/6/6 195/6/6
f 194/4/6 188/4/6 195/4/6
f 188/6/6 189/6/6 195/6/6
f 195/6/6 190/6/6 196/6/6
f 190/1/6 158/1/6 197/1/6
f 196/6/6 190/6/6 197/6/6
f 197/1/6 158/1/6 198/1/6
f 192/6/6 193/6/6 199/6/6
f 191/6/6 192/6/6 199/6/6
f 195/4/6 196/4/6 200/4/6
f 199/6/6 193/6/6 200/6/6
f 193/4/6 194/4/6 200/4/6
f 194/4/6 195/4/6 200/4/6
f 197/6/6 198/6/6 201/6/6
f 200/4/6 196/4/6 201/4/6
f 196/6/6 197/6/6 201/6/6
f 201/6/6 198/6/6 202/6/6
f 157/1/6 191/1/6 203/1/6
f 191/6/6 199/6/6 204/6/6
f 203/1/6 191/1/6 204/1/6
f 204/6/6 199/6/6 205/6/6
f 199/4/6 200/4/6 206/4/6
f 205/6/6 199/6/6 206/6/6
f 200/4/6 201/4/6 206/4/6
f 201/4/6 202/4/6 206/4/6
f 206/4/6 202/4/6 207/4/6
f 207/4/6 202/4/6 208/4/6
f 202/6/6 198/6/6 209/6/6
f 208/4/6 202/4/6 209/4/6
f 209/6/6 198/6/6 210/6/6
f 198/1/6 158/1/6 211/1/6
f 210/6/6 198/6/6 211/6/6
f 211/1/6 158/1/6 212/1/6
f 209/4/6 210/4/6 213/4/6
f 208/4/6 209/4/6 213/4/6
f 213/4/6 210/4/6 214/4/6
f 205/4/6 206/4/6 215/4/6
f 206/4/6 207/4/6 215/4/6
f 215/4/6 207/4/6 216/4/6
f 216/4/6 207/4/6 217/4/6
f 207/5/6 208/5/6 218/5/6
f 217/4/6 207/4/6 218/4/6
f 208/4/6 213/4/6 219/4/6
f 218/5/6 208/5/6 219/5/6
f 219/4/6 213/4/6 220/4/6
f 213/5/6 214/5/6 221/5/6
f 220/4/6 213/4/6 221/4/6
f 214/4/6 210/4/6 222/4/6
f 221/5/6 214/5/6 222/5/6
f 205/4/6 215/4/6 223/4/6
f 215/7/6 216/7/6 223/7/6
f 216/4/6 217/4/6 224/4/6
f 223/7/6 216/7/6 224/7/6
f 224/4/6 217/4/6 225/4/6
f 217/5/6 218/5/6 226/5/6
f 225/4/6 217/4/6 226/4/6
f 219/4/6 220/4/6 227/4/6
f 226/5/6 218/5/6 227/5/6
f 218/4/6 219/4/6 227/4/6
f 220/5/6 221/5/6 228/5/6
f 227/4/6 220/4/6 228/4/6
f 221/4/6 222/4/6 229/4/6
f 228/5/6 221/5/6 229/5/6
f 205/4/6 223/4/6 230/4/6
f 224/4/6 225/4/6 230/4/6
f 223/4/6 224/4/6 230/4/6
f 230/4/6 225/4/6 231/4/6
f 226/5/6 227/5/6 232/5/6
f 225/5/6 226/5/6 232/5/6
f 228/4/6 229/4/6 232/4/6
f 227/5/6 228/5/6 232/5/6
f 229/4/6 222/4/6 233/4/6
f 232/4/6 229/4/6 233/4/6
f 225/5/6 232/5/6 234/5/6
f 231/4/6 225/4/6 234/4/6
f 232/5/6 233/5/6 234/5/6
f 234/5/6 233/5/6 235/5/6
f 235/5/6 233/5/6 236/5/6
f 233/4/6 222/4/6 237/4/6
f 236/5/6 233/5/6 237/5/6
f 230/7/6 231/7/6 238/7/6
f 205/4/6 230/4/6 238/4/6
f 231/4/6 234/4/6 239/4/6
f 238/7/6 231/7/6 239/7/6
f 234/4/6 235/4/6 239/4/6
f 235/5/6 236/5/6 240/5/6
f 239/4/6 235/4/6 240/4/6
f 236/4/6 237/4/6 241/4/6
f 240/5/6 236/5/6 241/5/6
f 241/4/6 237/4/6 242/4/6
f 157/1/6 203/1/6 243/1/6
f 204/6/6 205/6/6 243/6/6
f 203/6/6 204/6/6 243/6/6
f 243/6/6 205/6/6 244/6/6
f 238/4/6 239/4/6 245/4/6
f 244/6/6 205/6/6 245/6/6
f 240/4/6 241/4/6 245/4/6
f 239/4/6 240/4/6 245/4/6
f 205/4/6 238/4/6 245/4/6
f 245/4/6 241/4/6 246/4/6
f 241/5/6 242/5/6 247/5/6
f 246/4/6 241/4/6 247/4/6
f 242/4/6 237/4/6 248/4/6
f 247/5/6 242/5/6 248/5/6
f 222/4/6 210/4/6 249/4/6
f 248/4/6 237/4/6 249/4/6
f 237/4/6 222/4/6 249/4/6
f 211/6/6 212/6/6 250/6/6
f 249/4/6 210/4/6 250/4/6
f 210/6/6 211/6/6 250/6/6
f 250/6/6 212/6/6 251/6/6
f 212/1/6 158/1/6 252/1/6
f 251/6/6 212/6/6 252/6/6
f 246/4/6 247/4/6 253/4/6
f 245/6/6 246/6/6 253/6/6
f 247/4/6 248/4/6 253/4/6
f 244/6/6 245/6/6 253/6/6
f 248/4/6 249/4/6 253/4/6
f 253/4/6 249/4/6 254/4/6
f 254/4/6 249/4/6 255/4/6
f 250/6/6 251/6/6 256/6/6
f 255/4/6 249/4/6 256/4/6
f 249/6/6 250/6/6 256/6/6
f 243/1/6 244/1/6 257/1/6
f 253/6/6 254/6/6 257/6/6
f 244/6/6 253/6/6 257/6/6
f 257/6/6 254/6/6 258/6/6
f 254/4/6 255/4/6 259/4/6
f 258/6/6 254/6/6 259/6/6
f 259/4/6 255/4/6 260/4/6
f 260/4/6 255/4/6 261/4/6
f 255/6/6 256/6/6 262/6/6
f 261/4/6 255/4/6 262/4/6
f 256/6/6 251/6/6 263/6/6
f 262/6/6 256/6/6 263/6/6
f 251/1/6 252/1/6 264/1/6
f 263/6/6 251/6/6 264/6/6
f 257/1/6 258/1/6 265/1/6
f 258/6/6 259/6/6 265/6/6
f 259/6/6 260/6/6 265/6/6
f 265/6/6 260/6/6 266/6/6
f 260/4/6 261/4/6 267/4/6
f 266/6/6 260/6/6 267/6/6
f 267/4/6 261/4/6 268/4/6
f 268/4/6 261/4/6 269/4/6
f 262/6/6 263/6/6 270/6/6
f 269/4/6 261/4/6 270/4/6
f 261/6/6 262/6/6 270/6/6
f 270/6/6 263/6/6 271/6/6
f 263/1/6 264/1/6 272/1/6
f 271/6/6 263/6/6 272/6/6
f 268/4/6 269/4/6 273/4/6
f 267/6/6 268/6/6 273/6/6
f 266/6/6 267/6/6 273/6/6
f 273/4/6 269/4/6 274/4/6
f 274/4/6 269/4/6 275/4/6
f 270/6/6 271/6/6 276/6/6
f 275/4/6 269/4/6 276/4/6
f 269/6/6 270/6/6 276/6/6
f 265/1/6 266/1/6 277/1/6
f 273/6/6 274/6/6 277/6/6
f 266/6/6 273/6/6 277/6/6
f 277/6/6 274/6/6 278/6/6
f 274/4/6 275/4/6 279/4/6
f 278/6/6 274/6/6 279/6/6
f 275/6/6 276/6/6 280/6/6
f 279/4/6 275/4/6 280/4/6
f 276/6/6 271/6/6 281/6/6
f 280/6/6 276/6/6 281/6/6
f 271/1/6 272/1/6 282/1/6
f 281/6/6 271/6/6 282/6/6
f 280/6/6 281/6/6 283/6/6
f 279/6/6 280/6/6 283/6/6
f 277/1/6 278/1/6 283/1/6
f 278/6/6 279/6/6 283/6/6
f 283/6/6 281/6/6 284/6/6
f 284/6/6 281/6/6 285/6/6
f 281/1/6 282/1/6 286/1/6
f 285/6/6 281/6/6 286/6/6
f 284/6/6 285/6/6 287/6/6
f 283/1/6 284/1/6 287/1/6
f 287/6/6 285/6/6 288/6/6
f 288/6/6 285/6/6 289/6/6
f 285/1/6 286/1/6 290/1/6
f 289/6/6 285/6/6 290/6/6
f 288/6/6 289/6/6 291/6/6
f 287/1/6 288/1/6 291/1/6
f 291/6/6 289/6/6 292/6/6
f 292/6/6 289/6/6 293/6/6
f 289/1/6 290/1/6 294/1/6
f 293/6/6 289/6/6 294/6/6
f 292/6/6 293/6/6 295/6/6
f 291/1/6 292/1/6 295/1/6
f 293/1/6 294/1/6 296/1/6
f 295/6/6 293/6/6 296/6/6
f 157/1/6 243/1/6 297/1/6
f 243/1/6 257/1/6 297/1/6
f 295/1/6 296/1/6 297/1/6
f 291/1/6 295/1/6 297/1/6
f 287/1/6 291/1/6 297/1/6
f 265/1/6 277/1/6 297/1/6
f 283/1/6 287/1/6 297/1/6
f 257/1/6 265/1/6 297/1/6
f 277/1/6 283/1/6 297/1/6
f 264/1/6 252/1/6 298/1/6
f 297/1/6 296/1/6 298/1/6
f 252/1/6 158/1/6 298/1/6
f 290/1/6 286/1/6 298/1/6
f 294/1/6 290/1/6 298/1/6
f 286/1/6 282/1/6 298/1/6
f 296/1/6 294/1/6 298/1/6
f 282/1/6 272/1/6 298/1/6
f 272/1/6 264/1/6 298/1/6
f 299/1/6 300/1/6 301/1/6
f 301/1/6 300/1/6 302/1/6
f 299/1/6 301/1/6 303/1/6
f 302/1/6 300/1/6 304/1/6
f 299/1/6 303/1/6 305/1/6
f 303/1/6 304/1/6 305/1/6
f 304/1/6 300/1/6 306/1/6
f 305/1/6 304/1/6 306/1/6
