# MagicaVoxel @ Ephtracy

# group
o 

# material
mtllib FoodPickerCheese.mtl
usemtl palette

# normals
vn -1 0 0
vn 1 0 0
vn 0 0 1
vn 0 0 -1
vn 0 -1 0
vn 0 1 0

# texcoords
vt 0.0410156 0.5
vt 0.0449219 0.5
vt 0.306641 0.5
vt 0.537109 0.5
vt 0.548828 0.5
vt 0.958984 0.5

# verts
v -2 0 2
v -2 0 -2
v -2 0.3 1.5
v -2 0.3 -1.7
v -2 0.4 1.8
v -2 0.4 1.6
v -2 0.8 1.8
v -2 0.8 1.6
v -2 0.9 1.5
v -2 0.9 -1.7
v -2 1.3 2
v -2 1.3 -2
v -1.9 0.3 1.5
v -1.9 0.3 -1.7
v -1.9 0.9 1.5
v -1.9 0.9 -1.7
v 1.5 0.3 2
v 1.5 0.3 1.9
v 1.5 0.9 2
v 1.5 0.9 1.9
v 1.7 0.3 -1.9
v 1.7 0.3 -2
v 1.7 0.9 -1.9
v 1.7 0.9 -2
v 1.7 1.1 1.7
v 1.7 1.1 -1.7
v 1.7 1.2 1.7
v 1.7 1.2 -1.7
v 1.7 1.3 1.7
v 1.7 1.3 -1.7
v -1.7 0.3 2
v -1.7 0.3 1.9
v -1.7 0.9 2
v -1.7 0.9 1.9
v -1.7 1.1 1.7
v -1.7 1.1 -1.7
v -1.7 1.2 1.7
v -1.7 1.2 -1.7
v -1.7 1.3 1.7
v -1.7 1.3 -1.7
v -1.5 0.3 -1.9
v -1.5 0.3 -2
v -1.5 0.9 -1.9
v -1.5 0.9 -2
v 1.9 0.3 1.7
v 1.9 0.3 -1.5
v 1.9 0.9 1.7
v 1.9 0.9 -1.5
v 2 0 2
v 2 0 -2
v 2 0.3 1.7
v 2 0.3 -1.5
v 2 0.4 -1.6
v 2 0.4 -1.8
v 2 0.8 -1.6
v 2 0.8 -1.8
v 2 0.9 1.7
v 2 0.9 -1.5
v 2 1.3 2
v 2 1.3 -2
v -2 0 2
v -2 1.3 2
v -1.7 0.3 2
v -1.7 0.9 2
v 1.5 0.3 2
v 1.5 0.9 2
v 1.6 0.4 2
v 1.6 0.8 2
v 1.8 0.4 2
v 1.8 0.8 2
v 2 0 2
v 2 1.3 2
v -1.7 0.3 1.9
v -1.7 0.9 1.9
v 1.5 0.3 1.9
v 1.5 0.9 1.9
v 1.9 0.3 -1.5
v 1.9 0.9 -1.5
v 2 0.3 -1.5
v 2 0.9 -1.5
v -2 0.3 -1.7
v -2 0.9 -1.7
v -1.9 0.3 -1.7
v -1.9 0.9 -1.7
v -1.7 1.1 -1.7
v -1.7 1.2 -1.7
v -1.7 1.3 -1.7
v 1.7 1.1 -1.7
v 1.7 1.2 -1.7
v 1.7 1.3 -1.7
v -1.7 1.1 1.7
v -1.7 1.2 1.7
v -1.7 1.3 1.7
v 1.7 1.1 1.7
v 1.7 1.2 1.7
v 1.7 1.3 1.7
v 1.9 0.3 1.7
v 1.9 0.9 1.7
v 2 0.3 1.7
v 2 0.9 1.7
v -2 0.3 1.5
v -2 0.9 1.5
v -1.9 0.3 1.5
v -1.9 0.9 1.5
v -1.5 0.3 -1.9
v -1.5 0.9 -1.9
v 1.7 0.3 -1.9
v 1.7 0.9 -1.9
v -2 0 -2
v -2 1.3 -2
v -1.8 0.4 -2
v -1.8 0.8 -2
v -1.6 0.4 -2
v -1.6 0.8 -2
v -1.5 0.3 -2
v -1.5 0.9 -2
v 1.7 0.3 -2
v 1.7 0.9 -2
v 2 0 -2
v 2 1.3 -2
v -2 0 2
v 2 0 2
v -2 0 -2
v 2 0 -2
v -1.7 0.9 2
v 1.5 0.9 2
v -1.7 0.9 1.9
v 1.5 0.9 1.9
v 1.9 0.9 1.7
v 2 0.9 1.7
v -2 0.9 1.5
v -1.9 0.9 1.5
v 1.9 0.9 -1.5
v 2 0.9 -1.5
v -2 0.9 -1.7
v -1.9 0.9 -1.7
v -1.5 0.9 -1.9
v 1.7 0.9 -1.9
v -1.5 0.9 -2
v 1.7 0.9 -2
v -1.7 0.3 2
v 1.5 0.3 2
v -1.7 0.3 1.9
v 1.5 0.3 1.9
v 1.9 0.3 1.7
v 2 0.3 1.7
v -2 0.3 1.5
v -1.9 0.3 1.5
v 1.9 0.3 -1.5
v 2 0.3 -1.5
v -2 0.3 -1.7
v -1.9 0.3 -1.7
v -1.5 0.3 -1.9
v 1.7 0.3 -1.9
v -1.5 0.3 -2
v 1.7 0.3 -2
v -1.7 1.1 1.7
v 1.7 1.1 1.7
v -0.4 1.1 1.4
v 0.4 1.1 1.4
v -0.7 1.1 1.3
v -0.4 1.1 1.3
v 0.4 1.1 1.3
v 0.7 1.1 1.3
v -0.8 1.1 1.2
v -0.7 1.1 1.2
v 0.7 1.1 1.2
v 0.8 1.1 1.2
v -1 1.1 1.1
v -0.8 1.1 1.1
v 0.8 1.1 1.1
v 1 1.1 1.1
v -1.1 1.1 1
v -1 1.1 1
v -0.2 1.1 1
v 2.38419e-007 1.1 1
v 1 1.1 1
v 1.1 1.1 1
v -0.4 1.1 0.9
v -0.2 1.1 0.9
v -1.2 1.1 0.8
v -1.1 1.1 0.8
v -0.6 1.1 0.8
v -0.4 1.1 0.8
v 2.38419e-007 1.1 0.8
v 0.1 1.1 0.8
v 1.1 1.1 0.8
v 1.2 1.1 0.8
v -1.3 1.1 0.7
v -1.2 1.1 0.7
v -0.7 1.1 0.7
v -0.6 1.1 0.7
v 1.2 1.1 0.7
v 1.3 1.1 0.7
v -0.8 1.1 0.6
v -0.7 1.1 0.6
v -0.2 1.1 0.6
v -0.0999999 1.1 0.6
v 0.1 1.1 0.6
v 0.2 1.1 0.6
v -0.2 1.1 0.5
v -0.0999999 1.1 0.5
v -1.4 1.1 0.4
v -1.3 1.1 0.4
v -0.9 1.1 0.4
v -0.8 1.1 0.4
v 0.2 1.1 0.4
v 0.3 1.1 0.4
v 1.3 1.1 0.4
v 1.4 1.1 0.4
v -0.7 1.1 0.3
v -0.6 1.1 0.3
v -0.3 1.1 0.3
v -0.2 1.1 0.3
v 2.38419e-007 1.1 0.3
v 0.1 1.1 0.3
v -1 1.1 0.2
v -0.9 1.1 0.2
v -0.7 1.1 0.2
v -0.6 1.1 0.2
v -0.3 1.1 0.2
v -0.2 1.1 0.2
v 2.38419e-007 1.1 0.2
v 0.1 1.1 0.2
v 0.3 1.1 0.2
v 0.4 1.1 0.2
v -1 1.1 -2.38419e-007
v -0.8 1.1 -2.38419e-007
v -0.3 1.1 -2.38419e-007
v -0.2 1.1 -2.38419e-007
v 2.38419e-007 1.1 -2.38419e-007
v 0.1 1.1 -2.38419e-007
v 0.4 1.1 -2.38419e-007
v 0.5 1.1 -2.38419e-007
v -0.8 1.1 -0.1
v -0.6 1.1 -0.1
v -0.3 1.1 -0.1
v -0.2 1.1 -0.1
v 2.38419e-007 1.1 -0.1
v 0.1 1.1 -0.1
v -0.6 1.1 -0.2
v -0.4 1.1 -0.2
v 0.5 1.1 -0.2
v 0.6 1.1 -0.2
v -0.4 1.1 -0.3
v -0.2 1.1 -0.3
v 0.4 1.1 -0.3
v 0.5 1.1 -0.3
v -1.4 1.1 -0.4
v -1.3 1.1 -0.4
v -0.2 1.1 -0.4
v 2.38419e-007 1.1 -0.4
v 0.4 1.1 -0.4
v 0.5 1.1 -0.4
v 0.6 1.1 -0.4
v 0.7 1.1 -0.4
v 1.3 1.1 -0.4
v 1.4 1.1 -0.4
v 2.38419e-007 1.1 -0.5
v 0.2 1.1 -0.5
v 0.2 1.1 -0.6
v 0.4 1.1 -0.6
v 0.7 1.1 -0.6
v 0.8 1.1 -0.6
v -1.3 1.1 -0.7
v -1.2 1.1 -0.7
v 0.4 1.1 -0.7
v 0.6 1.1 -0.7
v 0.8 1.1 -0.7
v 0.9 1.1 -0.7
v 1.2 1.1 -0.7
v 1.3 1.1 -0.7
v -1.2 1.1 -0.8
v -1.1 1.1 -0.8
v 0.6 1.1 -0.8
v 0.7 1.1 -0.8
v 1.1 1.1 -0.8
v 1.2 1.1 -0.8
v 0.7 1.1 -0.9
v 0.9 1.1 -0.9
v -1.1 1.1 -1
v -1 1.1 -1
v 1 1.1 -1
v 1.1 1.1 -1
v -1 1.1 -1.1
v -0.8 1.1 -1.1
v 0.8 1.1 -1.1
v 1 1.1 -1.1
v -0.8 1.1 -1.2
v -0.7 1.1 -1.2
v 0.7 1.1 -1.2
v 0.8 1.1 -1.2
v -0.7 1.1 -1.3
v -0.4 1.1 -1.3
v 0.4 1.1 -1.3
v 0.7 1.1 -1.3
v -0.4 1.1 -1.4
v 0.4 1.1 -1.4
v -1.7 1.1 -1.7
v 1.7 1.1 -1.7
v -2 1.3 2
v 2 1.3 2
v -1.7 1.3 1.7
v 1.7 1.3 1.7
v -1.7 1.3 -1.7
v 1.7 1.3 -1.7
v -2 1.3 -2
v 2 1.3 -2

# faces
f 3/3/1 2/3/1 1/3/1
f 4/3/1 2/3/1 3/3/1
f 5/3/1 3/3/1 1/3/1
f 6/3/1 3/3/1 5/3/1
f 7/3/1 5/3/1 1/3/1
f 7/4/1 6/4/1 5/4/1
f 8/3/1 3/3/1 6/3/1
f 8/4/1 6/4/1 7/4/1
f 9/3/1 8/3/1 7/3/1
f 9/3/1 3/3/1 8/3/1
f 10/3/1 2/3/1 4/3/1
f 11/3/1 9/3/1 7/3/1
f 11/3/1 10/3/1 9/3/1
f 11/3/1 7/3/1 1/3/1
f 12/3/1 2/3/1 10/3/1
f 12/3/1 10/3/1 11/3/1
f 15/3/1 14/3/1 13/3/1
f 16/3/1 14/3/1 15/3/1
f 19/3/1 18/3/1 17/3/1
f 20/3/1 18/3/1 19/3/1
f 23/3/1 22/3/1 21/3/1
f 24/3/1 22/3/1 23/3/1
f 27/5/1 26/5/1 25/5/1
f 28/5/1 26/5/1 27/5/1
f 29/3/1 28/3/1 27/3/1
f 30/3/1 28/3/1 29/3/1
f 31/3/2 32/3/2 33/3/2
f 33/3/2 32/3/2 34/3/2
f 35/5/2 36/5/2 37/5/2
f 37/5/2 36/5/2 38/5/2
f 37/3/2 38/3/2 39/3/2
f 39/3/2 38/3/2 40/3/2
f 41/3/2 42/3/2 43/3/2
f 43/3/2 42/3/2 44/3/2
f 45/3/2 46/3/2 47/3/2
f 47/3/2 46/3/2 48/3/2
f 49/3/2 50/3/2 51/3/2
f 51/3/2 50/3/2 52/3/2
f 52/3/2 50/3/2 53/3/2
f 53/3/2 50/3/2 54/3/2
f 52/3/2 53/3/2 55/3/2
f 53/4/2 54/4/2 55/4/2
f 54/3/2 50/3/2 56/3/2
f 55/4/2 54/4/2 56/4/2
f 49/3/2 51/3/2 57/3/2
f 52/3/2 55/3/2 58/3/2
f 55/3/2 56/3/2 58/3/2
f 49/3/2 57/3/2 59/3/2
f 57/3/2 58/3/2 59/3/2
f 56/3/2 50/3/2 60/3/2
f 59/3/2 58/3/2 60/3/2
f 58/3/2 56/3/2 60/3/2
f 63/3/3 62/3/3 61/3/3
f 64/3/3 62/3/3 63/3/3
f 65/3/3 63/3/3 61/3/3
f 66/3/3 62/3/3 64/3/3
f 67/3/3 66/3/3 65/3/3
f 68/3/3 66/3/3 67/3/3
f 69/3/3 67/3/3 65/3/3
f 69/4/3 68/4/3 67/4/3
f 70/3/3 66/3/3 68/3/3
f 70/4/3 68/4/3 69/4/3
f 71/3/3 65/3/3 61/3/3
f 71/3/3 69/3/3 65/3/3
f 71/3/3 70/3/3 69/3/3
f 72/3/3 66/3/3 70/3/3
f 72/3/3 70/3/3 71/3/3
f 72/3/3 62/3/3 66/3/3
f 75/3/3 74/3/3 73/3/3
f 76/3/3 74/3/3 75/3/3
f 79/3/3 78/3/3 77/3/3
f 80/3/3 78/3/3 79/3/3
f 83/3/3 82/3/3 81/3/3
f 84/3/3 82/3/3 83/3/3
f 88/5/3 86/5/3 85/5/3
f 89/3/3 87/3/3 86/3/3
f 89/5/3 86/5/3 88/5/3
f 90/3/3 87/3/3 89/3/3
f 91/5/4 92/5/4 94/5/4
f 92/3/4 93/3/4 95/3/4
f 94/5/4 92/5/4 95/5/4
f 95/3/4 93/3/4 96/3/4
f 97/3/4 98/3/4 99/3/4
f 99/3/4 98/3/4 100/3/4
f 101/3/4 102/3/4 103/3/4
f 103/3/4 102/3/4 104/3/4
f 105/3/4 106/3/4 107/3/4
f 107/3/4 106/3/4 108/3/4
f 109/3/4 110/3/4 111/3/4
f 111/3/4 110/3/4 112/3/4
f 109/3/4 111/3/4 113/3/4
f 111/4/4 112/4/4 113/4/4
f 112/3/4 110/3/4 114/3/4
f 113/4/4 112/4/4 114/4/4
f 109/3/4 113/3/4 115/3/4
f 113/3/4 114/3/4 115/3/4
f 114/3/4 110/3/4 116/3/4
f 115/3/4 114/3/4 116/3/4
f 109/3/4 115/3/4 117/3/4
f 116/3/4 110/3/4 118/3/4
f 109/3/4 117/3/4 119/3/4
f 117/3/4 118/3/4 119/3/4
f 118/3/4 110/3/4 120/3/4
f 119/3/4 118/3/4 120/3/4
f 123/3/5 122/3/5 121/3/5
f 124/3/5 122/3/5 123/3/5
f 127/3/5 126/3/5 125/3/5
f 128/3/5 126/3/5 127/3/5
f 133/3/5 130/3/5 129/3/5
f 134/3/5 130/3/5 133/3/5
f 135/3/5 132/3/5 131/3/5
f 136/3/5 132/3/5 135/3/5
f 139/3/5 138/3/5 137/3/5
f 140/3/5 138/3/5 139/3/5
f 141/3/6 142/3/6 143/3/6
f 143/3/6 142/3/6 144/3/6
f 145/3/6 146/3/6 149/3/6
f 149/3/6 146/3/6 150/3/6
f 147/3/6 148/3/6 151/3/6
f 151/3/6 148/3/6 152/3/6
f 153/3/6 154/3/6 155/3/6
f 155/3/6 154/3/6 156/3/6
f 157/3/6 158/3/6 159/3/6
f 159/3/6 158/3/6 160/3/6
f 157/3/6 159/3/6 161/3/6
f 159/6/6 160/6/6 162/6/6
f 161/3/6 159/3/6 162/3/6
f 160/3/6 158/3/6 163/3/6
f 162/6/6 160/6/6 163/6/6
f 163/3/6 158/3/6 164/3/6
f 157/3/6 161/3/6 165/3/6
f 161/6/6 162/6/6 166/6/6
f 165/3/6 161/3/6 166/3/6
f 162/6/6 163/6/6 166/6/6
f 163/6/6 164/6/6 166/6/6
f 164/3/6 158/3/6 167/3/6
f 166/6/6 164/6/6 167/6/6
f 167/3/6 158/3/6 168/3/6
f 157/3/6 165/3/6 169/3/6
f 165/6/6 166/6/6 170/6/6
f 169/3/6 165/3/6 170/3/6
f 166/6/6 167/6/6 170/6/6
f 167/6/6 168/6/6 170/6/6
f 168/3/6 158/3/6 171/3/6
f 170/6/6 168/6/6 171/6/6
f 171/3/6 158/3/6 172/3/6
f 157/3/6 169/3/6 173/3/6
f 169/6/6 170/6/6 174/6/6
f 173/3/6 169/3/6 174/3/6
f 170/6/6 171/6/6 174/6/6
f 171/6/6 172/6/6 174/6/6
f 174/6/6 172/6/6 175/6/6
f 175/6/6 172/6/6 176/6/6
f 172/3/6 158/3/6 177/3/6
f 176/6/6 172/6/6 177/6/6
f 177/3/6 158/3/6 178/3/6
f 173/6/6 174/6/6 179/6/6
f 174/6/6 175/6/6 179/6/6
f 175/1/6 176/1/6 180/1/6
f 179/6/6 175/6/6 180/6/6
f 157/3/6 173/3/6 181/3/6
f 173/6/6 179/6/6 182/6/6
f 181/3/6 173/3/6 182/3/6
f 182/6/6 179/6/6 183/6/6
f 179/1/6 180/1/6 184/1/6
f 183/6/6 179/6/6 184/6/6
f 180/1/6 176/1/6 185/1/6
f 184/1/6 180/1/6 185/1/6
f 177/6/6 178/6/6 185/6/6
f 176/6/6 177/6/6 185/6/6
f 185/6/6 178/6/6 186/6/6
f 178/3/6 158/3/6 187/3/6
f 186/6/6 178/6/6 187/6/6
f 187/3/6 158/3/6 188/3/6
f 157/3/6 181/3/6 189/3/6
f 181/6/6 182/6/6 190/6/6
f 189/3/6 181/3/6 190/3/6
f 182/6/6 183/6/6 190/6/6
f 190/6/6 183/6/6 191/6/6
f 183/1/6 184/1/6 192/1/6
f 191/6/6 183/6/6 192/6/6
f 185/1/6 186/1/6 192/1/6
f 184/1/6 185/1/6 192/1/6
f 188/3/6 158/3/6 193/3/6
f 187/6/6 188/6/6 193/6/6
f 186/6/6 187/6/6 193/6/6
f 193/3/6 158/3/6 194/3/6
f 190/6/6 191/6/6 195/6/6
f 189/6/6 190/6/6 195/6/6
f 191/1/6 192/1/6 196/1/6
f 195/6/6 191/6/6 196/6/6
f 192/1/6 186/1/6 197/1/6
f 196/1/6 192/1/6 197/1/6
f 197/1/6 186/1/6 198/1/6
f 193/6/6 194/6/6 199/6/6
f 198/1/6 186/1/6 199/1/6
f 186/6/6 193/6/6 199/6/6
f 199/6/6 194/6/6 200/6/6
f 195/1/6 196/1/6 201/1/6
f 197/2/6 198/2/6 201/2/6
f 196/1/6 197/1/6 201/1/6
f 199/1/6 200/1/6 202/1/6
f 201/2/6 198/2/6 202/2/6
f 198/1/6 199/1/6 202/1/6
f 157/3/6 189/3/6 203/3/6
f 189/6/6 195/6/6 204/6/6
f 203/3/6 189/3/6 204/3/6
f 204/6/6 195/6/6 205/6/6
f 195/1/6 201/1/6 206/1/6
f 205/6/6 195/6/6 206/6/6
f 201/1/6 202/1/6 206/1/6
f 200/6/6 194/6/6 207/6/6
f 206/1/6 202/1/6 207/1/6
f 202/1/6 200/1/6 207/1/6
f 207/6/6 194/6/6 208/6/6
f 194/3/6 158/3/6 209/3/6
f 208/6/6 194/6/6 209/6/6
f 209/3/6 158/3/6 210/3/6
f 207/1/6 208/1/6 211/1/6
f 205/1/6 206/1/6 211/1/6
f 206/1/6 207/1/6 211/1/6
f 211/1/6 208/1/6 212/1/6
f 212/1/6 208/1/6 213/1/6
f 213/1/6 208/1/6 214/1/6
f 214/1/6 208/1/6 215/1/6
f 215/1/6 208/1/6 216/1/6
f 204/6/6 205/6/6 217/6/6
f 203/6/6 204/6/6 217/6/6
f 205/1/6 211/1/6 218/1/6
f 217/6/6 205/6/6 218/6/6
f 211/2/6 212/2/6 219/2/6
f 218/1/6 211/1/6 219/1/6
f 212/1/6 213/1/6 220/1/6
f 219/2/6 212/2/6 220/2/6
f 213/2/6 214/2/6 221/2/6
f 220/1/6 213/1/6 221/1/6
f 214/1/6 215/1/6 222/1/6
f 221/2/6 214/2/6 222/2/6
f 215/2/6 216/2/6 223/2/6
f 222/1/6 215/1/6 223/1/6
f 216/1/6 208/1/6 224/1/6
f 223/2/6 216/2/6 224/2/6
f 209/6/6 210/6/6 225/6/6
f 224/1/6 208/1/6 225/1/6
f 208/6/6 209/6/6 225/6/6
f 225/6/6 210/6/6 226/6/6
f 223/1/6 224/1/6 227/1/6
f 222/1/6 223/1/6 227/1/6
f 225/1/6 226/1/6 227/1/6
f 224/1/6 225/1/6 227/1/6
f 219/1/6 220/1/6 227/1/6
f 218/1/6 219/1/6 227/1/6
f 217/1/6 218/1/6 227/1/6
f 203/6/6 217/6/6 227/6/6
f 220/1/6 221/1/6 227/1/6
f 221/1/6 222/1/6 227/1/6
f 227/1/6 226/1/6 228/1/6
f 228/1/6 226/1/6 229/1/6
f 229/1/6 226/1/6 230/1/6
f 230/1/6 226/1/6 231/1/6
f 231/1/6 226/1/6 232/1/6
f 226/6/6 210/6/6 233/6/6
f 232/1/6 226/1/6 233/1/6
f 233/6/6 210/6/6 234/6/6
f 227/6/6 228/6/6 235/6/6
f 228/1/6 229/1/6 235/1/6
f 235/1/6 229/1/6 236/1/6
f 229/2/6 230/2/6 237/2/6
f 236/1/6 229/1/6 237/1/6
f 230/1/6 231/1/6 238/1/6
f 237/2/6 230/2/6 238/2/6
f 231/2/6 232/2/6 239/2/6
f 238/1/6 231/1/6 239/1/6
f 233/1/6 234/1/6 240/1/6
f 239/2/6 232/2/6 240/2/6
f 232/1/6 233/1/6 240/1/6
f 237/1/6 238/1/6 241/1/6
f 238/1/6 239/1/6 241/1/6
f 239/1/6 240/1/6 241/1/6
f 235/6/6 236/6/6 241/6/6
f 236/1/6 237/1/6 241/1/6
f 241/1/6 240/1/6 242/1/6
f 240/1/6 234/1/6 243/1/6
f 242/1/6 240/1/6 243/1/6
f 234/6/6 210/6/6 243/6/6
f 243/6/6 210/6/6 244/6/6
f 241/6/6 242/6/6 245/6/6
f 242/1/6 243/1/6 245/1/6
f 243/1/6 244/1/6 245/1/6
f 245/1/6 244/1/6 246/1/6
f 246/1/6 244/1/6 247/1/6
f 247/1/6 244/1/6 248/1/6
f 157/3/6 203/3/6 249/3/6
f 203/6/6 227/6/6 249/6/6
f 235/6/6 241/6/6 249/6/6
f 227/6/6 235/6/6 249/6/6
f 245/6/6 246/6/6 249/6/6
f 241/6/6 245/6/6 249/6/6
f 249/6/6 246/6/6 250/6/6
f 246/1/6 247/1/6 251/1/6
f 250/6/6 246/6/6 251/6/6
f 251/1/6 247/1/6 252/1/6
f 247/2/6 248/2/6 253/2/6
f 252/1/6 247/1/6 253/1/6
f 248/1/6 244/1/6 254/1/6
f 253/2/6 248/2/6 254/2/6
f 244/6/6 210/6/6 255/6/6
f 254/1/6 244/1/6 255/1/6
f 255/6/6 210/6/6 256/6/6
f 256/6/6 210/6/6 257/6/6
f 210/3/6 158/3/6 258/3/6
f 257/6/6 210/6/6 258/6/6
f 253/1/6 254/1/6 259/1/6
f 252/1/6 253/1/6 259/1/6
f 251/6/6 252/6/6 259/6/6
f 255/1/6 256/1/6 259/1/6
f 254/1/6 255/1/6 259/1/6
f 250/6/6 251/6/6 259/6/6
f 259/1/6 256/1/6 260/1/6
f 259/6/6 260/6/6 261/6/6
f 260/1/6 256/1/6 261/1/6
f 261/1/6 256/1/6 262/1/6
f 256/6/6 257/6/6 263/6/6
f 262/1/6 256/1/6 263/1/6
f 263/6/6 257/6/6 264/6/6
f 261/6/6 262/6/6 265/6/6
f 249/3/6 250/3/6 265/3/6
f 250/6/6 259/6/6 265/6/6
f 259/6/6 261/6/6 265/6/6
f 265/6/6 262/6/6 266/6/6
f 263/1/6 264/1/6 267/1/6
f 266/6/6 262/6/6 267/6/6
f 262/1/6 263/1/6 267/1/6
f 267/1/6 264/1/6 268/1/6
f 264/6/6 257/6/6 269/6/6
f 268/1/6 264/1/6 269/1/6
f 269/6/6 257/6/6 270/6/6
f 270/6/6 257/6/6 271/6/6
f 257/3/6 258/3/6 272/3/6
f 271/6/6 257/6/6 272/6/6
f 267/6/6 268/6/6 273/6/6
f 265/3/6 266/3/6 273/3/6
f 266/6/6 267/6/6 273/6/6
f 273/6/6 268/6/6 274/6/6
f 269/1/6 270/1/6 275/1/6
f 274/6/6 268/6/6 275/6/6
f 268/1/6 269/1/6 275/1/6
f 275/1/6 270/1/6 276/1/6
f 270/6/6 271/6/6 277/6/6
f 271/3/6 272/3/6 278/3/6
f 277/6/6 271/6/6 278/6/6
f 276/1/6 270/1/6 279/1/6
f 274/6/6 275/6/6 279/6/6
f 275/6/6 276/6/6 279/6/6
f 270/6/6 277/6/6 280/6/6
f 279/1/6 270/1/6 280/1/6
f 274/6/6 279/6/6 281/6/6
f 273/3/6 274/3/6 281/3/6
f 279/6/6 280/6/6 281/6/6
f 281/6/6 280/6/6 282/6/6
f 280/6/6 277/6/6 283/6/6
f 282/6/6 280/6/6 283/6/6
f 277/3/6 278/3/6 284/3/6
f 283/6/6 277/6/6 284/6/6
f 281/3/6 282/3/6 285/3/6
f 282/6/6 283/6/6 285/6/6
f 285/6/6 283/6/6 286/6/6
f 286/6/6 283/6/6 287/6/6
f 283/3/6 284/3/6 288/3/6
f 287/6/6 283/6/6 288/6/6
f 286/6/6 287/6/6 289/6/6
f 285/3/6 286/3/6 289/3/6
f 289/6/6 287/6/6 290/6/6
f 290/6/6 287/6/6 291/6/6
f 287/3/6 288/3/6 292/3/6
f 291/6/6 287/6/6 292/6/6
f 290/6/6 291/6/6 293/6/6
f 289/3/6 290/3/6 293/3/6
f 293/6/6 291/6/6 294/6/6
f 294/6/6 291/6/6 295/6/6
f 291/3/6 292/3/6 296/3/6
f 295/6/6 291/6/6 296/6/6
f 294/6/6 295/6/6 297/6/6
f 293/3/6 294/3/6 297/3/6
f 295/3/6 296/3/6 298/3/6
f 297/6/6 295/6/6 298/6/6
f 157/3/6 249/3/6 299/3/6
f 249/3/6 265/3/6 299/3/6
f 297/3/6 298/3/6 299/3/6
f 293/3/6 297/3/6 299/3/6
f 289/3/6 293/3/6 299/3/6
f 265/3/6 273/3/6 299/3/6
f 285/3/6 289/3/6 299/3/6
f 273/3/6 281/3/6 299/3/6
f 281/3/6 285/3/6 299/3/6
f 272/3/6 258/3/6 300/3/6
f 299/3/6 298/3/6 300/3/6
f 258/3/6 158/3/6 300/3/6
f 292/3/6 288/3/6 300/3/6
f 288/3/6 284/3/6 300/3/6
f 296/3/6 292/3/6 300/3/6
f 284/3/6 278/3/6 300/3/6
f 298/3/6 296/3/6 300/3/6
f 278/3/6 272/3/6 300/3/6
f 301/3/6 302/3/6 303/3/6
f 303/3/6 302/3/6 304/3/6
f 301/3/6 303/3/6 305/3/6
f 304/3/6 302/3/6 306/3/6
f 301/3/6 305/3/6 307/3/6
f 305/3/6 306/3/6 307/3/6
f 306/3/6 302/3/6 308/3/6
f 307/3/6 306/3/6 308/3/6
